<svg xmlns="http://www.w3.org/2000/svg" fill="none" viewBox="24 22 60 60">
<g filter="url(#bw)" opacity=".1">
<path d="m24.08 44.19c0.073-7.7742 0.1095-11.661 1.6454-14.628 1.3513-2.6094 3.4894-4.7275 6.1114-6.0542 2.9804-1.5081 6.8677-1.5081 14.642-1.5081h15.044c7.7743 0 11.661 0 14.642 1.508 2.6219 1.3266 4.76 3.4446 6.1113 6.0539 1.536 2.9661 1.5726 6.853 1.6459 14.627l0.0787 8.3419-0.0712 7.2881c-0.0759 7.7715-0.1139 11.657-1.6502 14.622-1.3517 2.6084-3.4896 4.7256-6.1111 6.0517-2.9799 1.5073-6.8658 1.5073-14.638 1.5073h-15.061c-7.7715 0-11.657 0-14.637-1.5073-2.6214-1.3259-4.7593-3.443-6.111-6.0513-1.5364-2.9648-1.5746-6.8504-1.6508-14.622l-0.0702-7.1492 0.0796-8.4809z" clip-rule="evenodd" fill="#4A6D86" fill-rule="evenodd"/>
</g>
<mask id="br" x="24" y="22" width="60" height="60" style="mask-type:alpha" maskUnits="userSpaceOnUse">
<path d="m24.08 44.19c0.073-7.7742 0.1095-11.661 1.6454-14.628 1.3513-2.6094 3.4894-4.7275 6.1114-6.0542 2.9804-1.5081 6.8677-1.5081 14.642-1.5081h15.044c7.7743 0 11.661 0 14.642 1.508 2.6219 1.3266 4.76 3.4446 6.1113 6.0539 1.536 2.9661 1.5726 6.853 1.6459 14.627l0.0787 8.3419-0.0712 7.2881c-0.0759 7.7715-0.1139 11.657-1.6502 14.622-1.3517 2.6084-3.4896 4.7256-6.1111 6.0517-2.9799 1.5073-6.8658 1.5073-14.638 1.5073h-15.061c-7.7715 0-11.657 0-14.637-1.5073-2.6214-1.3259-4.7593-3.443-6.111-6.0513-1.5364-2.9648-1.5746-6.8504-1.6508-14.622l-0.0702-7.1492 0.0796-8.4809z" clip-rule="evenodd" fill="#fff" fill-rule="evenodd"/>
</mask>
<g mask="url(#br)">
<path d="m42.275 62.973c-0.1289-0.208-0.6905-0.4215-1.1246-0.4105-0.5644 0.0123-1.1328-0.0562-1.6876-0.0096-0.5806 0.0492-0.9754 0.4612-1.4841 0.572 0.2276-0.0469 0.4633-0.0345 0.6848 0.0362 0.2215 0.0706 0.4214 0.1972 0.5809 0.3676 0.2605 0.2846 0.3961 0.6843 0.6973 0.921 0.5426 0.4366 1.4542 0.2299 1.9182 0.7541 0.1532 0.202 0.2602 0.4357 0.3133 0.6843 0.4708-0.9662 0.5969-1.9625 0.1018-2.9151z" fill="url(#bq)"/>
<path d="m42.172 64.542c-0.1194-0.4872-1.0323-0.6733-1.442-1.0072-0.3259-0.3078-0.6259-0.6425-0.8967-1.0005h-0.1642c0.2207 0.2566 0.4259 0.5262 0.6146 0.8075 0.2496 0.4106 0.5426 0.5926 1.2399 0.8649 0.6972 0.2724 0.647 1.6752 0.647 1.6752s0.1208-0.8499 0.0014-1.3399z" fill="url(#bf)"/>
<path d="m28.46 77.763c-0.0394-1.9037 0.704-3.7513 0.7407-5.6549 0.0312-1.6957-0.4857-3.4707 0.1478-5.0419 0.2605-0.6459 0.6987-1.2002 1.1314-1.7449l1.5913-2.0104c0.3945-0.5264 0.8304-1.0198 1.3036-1.4753 1.4746-1.3481 3.1947-1.6163 5.0967-1.1921 0.7067 0.1574 1.3986 0.4845 1.872 1.0374 0.083 0.114 0.1822 0.215 0.2944 0.2997 0.1831 0.1164 0.407 0.1164 0.6227 0.1629 0.22 0.0489 0.4258 0.1484 0.6014 0.2909 0.1755 0.1424 0.316 0.3239 0.4106 0.5302-0.8615-0.4379-1.571 0.8321-2.3306 1.0949-0.9517 0.3213-1.9471 0.4916-2.9506 0.505-0.6905 0.0082-1.4366-0.0424-2.0077 0.349-0.8139 0.5556-0.9252 1.7723-1.6943 2.3827-0.7421 0.5884-1.8721 0.442-2.6128 1.0305-0.8655 0.6843-0.8139 1.9885-0.8695 3.0971-0.0542 0.735-0.1511 1.4662-0.2903 2.1897l-0.696 4.0332c-0.0285 0.1615-0.0827 0.3531-0.2387 0.3955s-0.2618-0.2737-0.0991-0.2655" fill="url(#au)"/>
<path d="m36.463 62.33c1.7893-0.4298 2.6182-0.9238 3.3914-1.0867-0.1206-0.0868-0.2471-0.165-0.3785-0.234-0.8195 0.3302-1.6586 0.6085-2.5124 0.8335-1.1747 0.2737-2.0104 0.5926-2.6208 1.3685-0.6105 0.776-1.6483 1.7313-3.1201 2.677-0.4308 0.2806-0.7942 0.6546-1.0639 1.0947-0.2696 0.44-0.4386 0.9352-0.4948 1.4494 0 0 0.9496-1.9625 2.5774-2.9424 1.6279-0.9799 2.0987-2.6509 4.2217-3.16z" fill="url(#aj)"/>
<path d="m28.366 73.458c0.236-1.7941 0.605-3.5897 1.366-5.2265 0.2184-0.4681 0.4776-0.9348 0.8832-1.2509 0.293-0.2313 0.647-0.3682 0.9618-0.5707 0.5087-0.3271 0.9184-0.8211 1.4922-1.0264 0.9862-0.3518 2.0159 0.2928 3.0265 0.5666 0.6552 0.1765 1.4271 0.2477 1.8151 0.8074 0.2279 0.3298 0.2618 0.7596 0.4558 1.1099 0.1356 0.2546 0.3554 0.4544 0.5263 0.6843 0.2534 0.3623 0.395 0.7921 0.4068 1.2353s-0.1066 0.88-0.3403 1.2555c-0.8058-0.958-2.0348-1.4192-3.2123-1.8407l-2.1027-0.7541c-0.5942-0.2121-1.1992-0.427-1.8287-0.442-0.7366-0.0178-1.3633 0.1272-1.8246 0.7609-0.3133 0.4311-0.4788 0.958-0.624 1.4671-0.5565 1.9784-0.9003 4.0115-1.0255 6.0641-0.0095 0.1711-0.2605-0.1368-0.2714-0.1491-0.0501-0.0876 0.076-0.6351 0.0869-0.7596 0.0624-0.6405 0.1234-1.2878 0.2089-1.9311z" fill="url(#y)"/>
<path d="m28.271 72.846h-5.5647l1.651 17.993h7.826l1.6523-17.993h-5.5646z" fill="url(#n)"/>
<g filter="url(#bv)">
<path d="m60.613 26.748h-22.465v30.285h22.465v-30.285z" fill="#fff"/>
</g>
<path d="m58.742 37.409h-18.69v1.0839h18.69v-1.0839z" fill="#E1E5F0"/>
<path d="m58.803 29.2h-9.6v1.2h9.6v-1.2z" fill="#E1E5F0"/>
<path d="m58.743 33.139h-9.3454v1.0839h9.3454v-1.0839z" fill="#FCD77F"/>
<path d="m58.742 39.892h-18.69v0.1601h18.69v-0.1601z" fill="#E1E5F0"/>
<path d="m58.742 41.318h-18.69v0.1601h18.69v-0.1601z" fill="#E1E5F0"/>
<path d="m58.742 42.746h-18.69v0.1601h18.69v-0.1601z" fill="#E1E5F0"/>
<path d="m58.742 44.25h-18.69v1.0839h18.69v-1.0839z" fill="#E1E5F0"/>
<path d="m58.742 46.731h-18.69v0.1601h18.69v-0.1601z" fill="#E1E5F0"/>
<path d="m58.742 48.16h-18.69v0.1601h18.69v-0.1601z" fill="#E1E5F0"/>
<path d="m58.742 49.585h-18.69v0.1601h18.69v-0.1601z" fill="#E1E5F0"/>
<path d="m43.557 35.28c1.9353 0 3.5041-1.5827 3.5041-3.5351 0-1.9523-1.5688-3.535-3.5041-3.535-1.9352 0-3.504 1.5827-3.504 3.535 0 1.9524 1.5688 3.5351 3.504 3.5351z" fill="#FCD77F"/>
<path d="m43.557 35.28c1.9353 0 3.5041-1.5827 3.5041-3.5351 0-1.9523-1.5688-3.535-3.5041-3.535-1.9352 0-3.504 1.5827-3.504 3.535 0 1.9524 1.5688 3.5351 3.504 3.5351z" fill="#FCD77F"/>
<path d="m44.854 35.255c0.0828 0 0.9795-0.0068 0.9808 0.0192 1e-4 -0.3668-0.0299-0.733-0.0895-1.0949-0.0306-0.1725-0.0993-0.3359-0.201-0.478-0.1017-0.1422-0.2337-0.2594-0.3864-0.3431-0.3714-0.1645-0.7614-0.2826-1.1612-0.3517-0.5427-0.1177-1.0609 0.0342-1.5954 0.1642-0.2848 0.0684-0.5901 0.1506-0.7773 0.3955-0.1338 0.2147-0.2117 0.4599-0.2265 0.7131-0.0122 0.078-0.118 0.9388-0.1221 0.9374 0.8804 0.1122 3.4009 0.0383 3.5786 0.0383z" fill="url(#d)"/>
<path d="m41.983 31.646c-0.0502 0.1655-0.118 0.3257-0.1655 0.4913-0.0613 0.166-0.0584 0.3492 0.0082 0.5132 0.0847 0.1367 0.2121 0.2412 0.3622 0.297 0.2594 0.1141 0.5333 0.1911 0.8139 0.2285 0.3242 0.0493 0.6606 0.0096 0.9849 0.0342 0.3242 0.0247 0.7217-0.1491 1.0215-0.2819 0.1267-0.0433 0.2384-0.1227 0.3215-0.2285 0.1994-0.3025-0.0733-0.6912-0.1058-1.0032-0.0272-0.2737-0.0299-0.5392-0.0692-0.8075-7e-4 -0.0225-0.0088-0.0442-0.0231-0.0616-0.0169-0.014-0.0378-0.0221-0.0597-0.0232-0.9837-0.1573-1.9846-0.1712-2.9722-0.0411 0 0.1369-0.0082 0.2833-0.0217 0.4256-0.0136 0.1424-0.095 0.3135-0.095 0.4572z" fill="url(#c)"/>
<path d="m44.383 32.938c-0.3575-0.1087-0.7331-0.1432-1.1042-0.1013-0.2523 0.0233-0.6552 0.0644-0.8248 0.2737-0.0569 0.0822-0.0962 0.1754-0.1153 0.2738-0.0675 0.3092-0.1129 0.623-0.1357 0.9388-0.0277 0.128-0.0114 0.2617 0.0461 0.3791 0.0363 0.048 0.0825 0.0873 0.1355 0.1152s0.1114 0.0437 0.1711 0.0463c0.1192 0.0038 0.2384-0.0012 0.3568-0.0151 0.2244-0.0124 0.4491 0.0206 0.6606 0.0972 0.0319 0.0149 0.0667 0.0219 0.1018 0.0205 0.0302-0.0056 0.0592-0.0167 0.0855-0.0328 0.2618-0.1369 0.5724-0.1191 0.8668-0.1191 0.156 0 0.3256 0.0247 0.3771-0.1601 0.0163-0.0737 0.0191-0.1498 0.0082-0.2245-0.02-0.2651-0.0585-0.5286-0.1153-0.7882-0.0341-0.1895-0.1056-0.3701-0.2103-0.5311-0.0838-0.0844-0.1889-0.144-0.3039-0.1724z" fill="url(#b)"/>
<path d="m44.117 29.047c-0.5074-0.1629-1.282-0.0986-1.6008 0.3941-0.0871 0.1474-0.1447 0.3106-0.1696 0.4804-0.0639 0.3966-0.0839 0.7992-0.0596 1.2002-0.0136-0.0843-0.0513-0.1628-0.1086-0.2258-0.0068-0.0095-0.0158-0.0172-0.0261-0.0224-0.0104-0.0053-0.0219-0.0079-0.0336-0.0077-0.0271 0-0.0393 0.0383-0.0447 0.0671-0.0356 0.155-0.0309 0.3167 0.0135 0.4694 0.0224 0.0761 0.0602 0.1468 0.1111 0.2073 0.0509 0.0606 0.1138 0.1098 0.1847 0.1444 0.061 0.0287 0.0814 0.1218 0.1017 0.1848 0.0501 0.16 0.1442 0.3024 0.2713 0.4105 0.1126 0.0945 0.1845 0.1506 0.1845 0.3011 0 0.1506 0.0353 0.3723-0.1058 0.4448-0.0644 0.0268-0.134 0.038-0.2035 0.0329 0.3351 0.6117 0.6702 1.2248 1.0242 1.827 0.3161-0.5926 0.5807-1.2117 0.7909-1.8503-0.0751-0.027-0.1452-0.0663-0.2075-0.1163-0.0501-0.0572-0.083-0.1277-0.0948-0.2031-0.0117-0.0754-0.0019-0.1526 0.0283-0.2226 0.0332-0.037 0.0745-0.0656 0.1207-0.0834 0.1152-0.072 0.2202-0.1595 0.312-0.2601 0.1209-0.1293 0.2073-0.2876 0.251-0.4598 0.0773-0.0069 0.1356-0.0794 0.1682-0.1478 0.1055-0.1686 0.1658-0.362 0.175-0.5611 0-0.063-0.0244-0.1437-0.0868-0.1451-0.0263 0.0012-0.0514 0.0119-0.0706 0.0301-0.0501 0.0426-0.0865 0.0993-0.1044 0.1629 0.039-0.4117 0.0166-0.8268-0.0665-1.2318-0.0513-0.2202-0.1632-0.4213-0.3228-0.5802-0.1248-0.1107-0.272-0.1924-0.4314-0.2395z" fill="url(#a)"/>
<path d="m42.962 29.781c0.1763 0.224 0.3806 0.4241 0.6077 0.5953 0.3194 0.1953 0.6716 0.3298 1.0392 0.3969 0.0616 0.0081 0.1188 0.0365 0.1627 0.0807 0.0212 0.0308 0.0355 0.0658 0.0421 0.1027l0.0841 0.3325c0.1075-0.496 0.0865-1.0117-0.061-1.4972-0.0264-0.0998-0.0661-0.1956-0.1181-0.2846-0.0554-0.0788-0.1186-0.1517-0.1885-0.2176-0.11-0.13-0.2497-0.2309-0.407-0.2943-0.1373-0.0288-0.2781-0.0371-0.4178-0.0246-0.2123-0.0229-0.4265-0.0183-0.6376 0.0137-0.0825 0.019-0.1589 0.0588-0.2222 0.1154-0.0633 0.0567-0.1114 0.1285-0.14 0.2089-0.0651 0.1985 0.1411 0.3435 0.2564 0.4722z" fill="url(#bp)"/>
<path d="m43.36 29.97c0.0896 0.0424 0.1818 0.0808 0.2713 0.1163 0.3578 0.1133 0.7077 0.2504 1.0473 0.4106 0.0537 0.025 0.1003 0.0631 0.1357 0.1109 0.0349 0.0658 0.05 0.1405 0.0434 0.2148-0.0159 0.2149-0.01 0.4309 0.0176 0.6446 0.0163 0.0082 0.0312-0.0137 0.0366-0.0314 0.0254-0.0844 0.0427-0.171 0.0516-0.2587 0.0095-0.0985 0-0.2518 0.1506-0.2327 0.0094 0.0021 0.0191 0.0021 0.0285 0 0.0203 0 0.0244-0.0328 0.0257-0.0547 0.0254-0.4359-0.0047-0.8733-0.0895-1.3015-0.0624-0.2737-0.1357-0.4612-0.388-0.6145-0.1558-0.0906-0.3221-0.1614-0.4951-0.2108-0.1533-0.0542-0.3108-0.0959-0.4707-0.1245-0.4287-0.0684-0.9171 0.0192-1.221 0.3503-0.0945 0.1253-0.1708 0.2636-0.2265 0.4106-0.1228 0.2413-0.2001 0.5035-0.2279 0.7733-0.0095 0.1289-0.0095 0.2583 0 0.3873 0 0.0903-0.0258 0.3065 0.0434 0.3695 0.0176 0.0139 0.0367 0.0258 0.057 0.0356 0.0366 0.0285 0.067 0.0644 0.0891 0.1054 0.0222 0.041 0.0357 0.0862 0.0397 0.1327 0.0123 0.0684 0.0068 0.2354 0.0706 0.2559 0.0203-0.1108 0.0258-0.2272 0.038-0.3394 0.0022-0.059 0.0156-0.1171 0.0393-0.1711 0.0256-0.0426 0.0541-0.0833 0.0855-0.1218 0.1085-0.1601 0.1289-0.442 0.1573-0.6322 0.0136-0.1099 0.0191-0.2206 0.0163-0.3312-0.0108-0.095-0.0062-0.1912 0.0136-0.2847 0.0651-0.0848 0.1858 0.0958 0.2455 0.1451 0.1283 0.0982 0.2677 0.1809 0.4151 0.2463z" fill="url(#bo)"/>
<path d="m43.658 34.955c0.0882-0.167 0.1723-0.3353 0.2523-0.5064-0.1845 0-0.3703-0.0095-0.5548-0.0177 0.1004 0.1751 0.2012 0.3499 0.3025 0.5241z" fill="url(#bn)"/>
<path d="m45.606 33.795 0.019 0.4927c0.0082 0.1971 0.0095 0.4106-0.118 0.5625-0.1171 0.1115-0.2682 0.1796-0.4287 0.1929-0.5953 0.0815-1.1979 0.0939-1.7961 0.037l-1.1598-0.0643c-0.0772-0.0011-0.1538-0.0126-0.2279-0.0342-0.0718-0.0302-0.1364-0.0752-0.1897-0.1323s-0.0941-0.1249-0.1196-0.1989c-0.0511-0.1483-0.0808-0.3031-0.0882-0.4599 0-0.0602 0-0.1998-0.0122-0.3257-0.0375 0.1346-0.0652 0.2719-0.0828 0.4106-0.0122 0.078-0.118 0.9388-0.1221 0.9375 0.8764 0.1122 3.3914 0.041 3.5787 0.041 0.0827 0 0.9794-0.0068 0.9808 0.0192 0-0.3668-0.0299-0.733-0.0896-1.0949-0.0296-0.134-0.078-0.263-0.1438-0.3832z" fill="url(#bm)"/>
<g filter="url(#bu)">
<path d="m67.178 31.812h-22.383v28.603h22.383v-28.603z" fill="#fff"/>
</g>
<path d="m65.343 42.41h-18.689v1.0839h18.689v-1.0839z" fill="#E1E5F0"/>
<path d="m64.548 35.2h-9.3454v1.2h9.3454v-1.2z" fill="#E1E5F0"/>
<path d="m60.493 37.6h-5.2906v1.2h5.2906v-1.2z" fill="#E1E5F0"/>
<path d="m50.158 40.281c1.9352 0 3.504-1.5826 3.504-3.535 0-1.9523-1.5688-3.535-3.504-3.535s-3.504 1.5827-3.504 3.535c0 1.9524 1.5688 3.535 3.504 3.535z" fill="#FCD77F"/>
<path d="m51.636 40.259c0.095 0 1.1178-0.0068 1.1192 0.0205-0.0258-0.3832-0.0081-0.7746-0.1031-1.1468-0.039-0.1848-0.1196-0.358-0.2356-0.5063-0.1159-0.1484-0.2642-0.2678-0.4332-0.3491-0.4257-0.1723-0.8694-0.2954-1.3226-0.3668-0.6268-0.1231-1.2087 0.0356-1.8192 0.1711-0.3229 0.0712-0.6715 0.1574-0.8845 0.4106-0.1736 0.208-0.2157 0.4831-0.2591 0.7431-0.0135 0.0808-0.1356 0.9799-0.1356 0.9786 0.9984 0.119 3.8703 0.0451 4.0737 0.0451z" fill="url(#bl)"/>
<path d="m49.021 38.38c-0.077 0.2655-0.1346 0.5363-0.1723 0.8102 0.1494-0.1148 0.3215-0.196 0.5046-0.2381 0.1446-0.0158 0.2901-0.0213 0.4355-0.0164 0.0212-0.0018 0.0426 0.0014 0.0624 0.0095 0.0147 0.0083 0.0276 0.0195 0.038 0.0329 0.1004 0.1259 0.1668 0.2847 0.2984 0.375 0.095-0.1081 0.194-0.2122 0.2958-0.3134 0.0236-0.0271 0.0521-0.0494 0.0841-0.0657 0.0845-0.0195 0.1718-0.0232 0.2577-0.011 0.0849-0.0041 0.17 0.0014 0.2537 0.0165 0.1017 0.0191 0.407 0.1053 0.4151 0.2436-0.032-0.2638-0.0823-0.5249-0.1506-0.7815-0.0329-0.1765-0.0987-0.3451-0.194-0.4968-0.046-0.0613-0.1039-0.1125-0.1701-0.1506s-0.1394-0.0623-0.2151-0.0711c-0.2542-0.0628-0.5161-0.0877-0.7774-0.0739-0.2313 0.0086-0.4568 0.0749-0.6565 0.193-0.175 0.1067-0.2537 0.3449-0.3093 0.5378z" fill="url(#bk)"/>
<path d="m50.718 34.05c-0.5074-0.1629-1.282-0.0986-1.6008 0.3941-0.0865 0.1477-0.1441 0.3108-0.1696 0.4804-0.0639 0.3966-0.084 0.7991-0.0596 1.2002-0.0125-0.0844-0.0499-0.1631-0.1072-0.2258-7e-3 -0.0096-0.0162-0.0174-0.0269-0.0226-0.0106-0.0053-0.0223-0.0078-0.0342-0.0075-0.0271 0-0.0379 0.0383-0.0434 0.0671-0.036 0.1549-0.0318 0.3166 0.0122 0.4694 0.023 0.0758 0.0611 0.1461 0.112 0.2066 0.0508 0.0605 0.1134 0.1098 0.1838 0.1451 0.0624 0.0287 0.0814 0.1218 0.1017 0.1848 0.0501 0.16 0.1442 0.3024 0.2713 0.4105 0.0629 0.0432 0.1179 0.0969 0.1628 0.1588 0.0195 0.0352 0.0324 0.0737 0.038 0.1136 0.0161 0.0909 0.0124 0.1843-0.0108 0.2737-0.0258 0.0725-0.1113 0.1204-0.1208 0.1971-2e-3 0.0261 0.0021 0.0524 0.0122 0.0766 0.1438 0.4243 0.5047 0.7076 0.6892 1.1044 0.0117 0.0322 0.0318 0.0606 0.0583 0.0822 0.2347-0.4284 0.5182-0.8349 0.6783-1.3002-0.0447-0.073-0.0846-0.1489-0.1194-0.2272-0.0198-0.0888-0.0117-0.1815 0.0231-0.2655 0.0324-0.0373 0.0734-0.0659 0.1193-0.0835 0.1157-0.0718 0.2212-0.1593 0.3134-0.26 0.12-0.1298 0.2059-0.2879 0.2496-0.4598 0.0773 0 0.1357-0.0794 0.1682-0.1478 0.1061-0.1689 0.1665-0.3628 0.175-0.5625 0-0.0616-0.0244-0.1369-0.0854-0.1369-0.0264 1e-3 -0.0515 0.0117-0.0706 0.0301-0.0508 0.0422-0.0877 0.099-0.1058 0.1629 0.0397-0.4116 0.0173-0.8269-0.0665-1.2317-0.0503-0.2203-0.1618-0.4216-0.3215-0.5803-0.1226-0.1123-0.2679-0.1963-0.4259-0.2463z" fill="url(#bj)"/>
<path d="m51.532 35.898c0.0325-0.3441 0.0095-0.6911-0.0678-1.0278-0.0503-0.2203-0.1618-0.4216-0.3215-0.5803-0.1233-0.1098-0.2686-0.1915-0.426-0.2395-0.4707-0.1519-1.1707-0.1054-1.5234 0.2943l0.0204 0.0219c0.0848 0.111 0.1754 0.2174 0.2713 0.3188 0.335 0.3039 0.7759 0.4585 1.2127 0.5666 0.1615 0.0397 0.3405 0.0835 0.4355 0.2217 0.0487 0.0931 0.0882 0.1907 0.118 0.2915 0.0394 0.0931 0.2713 0.2874 0.2713 0.375 0-0.0793 0.0055-0.1601 0.0095-0.2422z" fill="url(#bi)"/>
<path d="m49.997 34.89 0.6688 0.1889 0.3459 0.0972c0.0583 0.0164 0.251 0.0301 0.2713 0.0917 0.0034 0.019 0.0034 0.0384 0 0.0574-0.0092 0.1781 0.0185 0.3562 0.0814 0.5228 0.0288 0.0668 0.0533 0.1354 0.0733 0.2053 0.0298 0.1369 0 0.2737 0.0339 0.4106 0.0162 0.0096 0.0312-0.0123 0.0366-0.0301 0.0259-0.0842 0.0432-0.1709 0.0515-0.2587-2e-4 -0.0624 0.0133-0.1241 0.0394-0.1806 0.0814-0.1369 0.1587-0.1725 0.1763-0.3504 0.015-0.1332 0.015-0.2677 0-0.401 0.0474-0.0703 0.0786-0.1504 0.0913-0.2345s0.0065-0.1699-0.018-0.2513c-0.0374-0.1616-0.106-0.3141-0.2019-0.4489s-0.2172-0.2492-0.357-0.3367c-0.1559-0.0907-0.3222-0.1619-0.4952-0.2121-0.1533-0.0538-0.3107-0.095-0.4707-0.1232-0.3584-0.0567-0.7254 7e-4 -1.05 0.1643-0.0863 0.0369-0.1609 0.097-0.2157 0.1738-0.0477 0.0895-0.0653 0.1923-0.0502 0.2928 0.0055 0.0308 0.0055 0.0623 0 0.0931-0.0208 0.0477-0.0541 0.0889-0.0963 0.1191-0.1671 0.1884-0.261 0.4314-0.2645 0.6843-0.0095 0.1284-0.0095 0.2574 0 0.3859 0 0.0917-0.0258 0.3079 0.0434 0.3709 0.0179 0.0136 0.0369 0.0255 0.057 0.0356 0.0368 0.0283 0.0673 0.0642 0.0895 0.1052s0.0356 0.0863 0.0394 0.1329c0.0122 0.0684 0.0067 0.2354 0.0705 0.2559 0.0203-0.1108 0.0258-0.2272 0.038-0.3394 0.0026-0.059 0.0159-0.117 0.0393-0.1711 0.0231-0.0438 0.0584-0.0807 0.0855-0.1218 0.1099-0.1601 0.1356-0.442 0.1573-0.6322 0.0143-0.1098 0.0198-0.2206 0.0163-0.3312 0-0.0603 0.0326-0.3244-0.0068-0.3641l0.1764 0.1752c0.1262 0.1259 0.3785 0.1793 0.544 0.2244z" fill="url(#bh)"/>
<path d="m51.636 40.259c0.095 0 1.1178-0.0068 1.1192 0.0205-0.0258-0.3832-0.0082-0.7746-0.1031-1.1468-0.0608-0.2707-0.2063-0.5145-0.4151-0.6953-0.0095 0.1369 0 0.2861 0 0.4257 0.0067 0.2238-0.0069 0.4479-0.0407 0.6692-0.0096 0.1241-0.0512 0.2435-0.1208 0.3463-0.1166 0.1505-0.3201 0.1943-0.506 0.223-1.0681 0.164-2.1564 0.1399-3.2164-0.0711-0.0746-0.0064-0.1446-0.0388-0.198-0.0917-0.0308-0.0443-0.0504-0.0955-0.057-0.1492l-0.1913-0.9457c-0.0173-0.0796-0.0273-0.1607-0.0298-0.2422-0.0964 0.1996-0.1557 0.4152-0.175 0.6364-0.0136 0.0807-0.1357 0.9799-0.1357 0.9785 0.9944 0.1163 3.8662 0.0424 4.0697 0.0424z" fill="url(#bg)"/>
<path d="m51.449 34.729c0.0534 0.0101 0.1085 0.0064 0.1601-0.0109 0.0311-0.0159 0.0578-0.0394 0.0777-0.0683s0.0324-0.0624 0.0363-0.0973c0.0078-0.0453 0.0078-0.0916 0-0.1369-0.1032-0.1793-0.2486-0.3302-0.4233-0.4393-0.1559-0.0907-0.3222-0.1619-0.4951-0.2121-0.1534-0.0539-0.3108-0.0951-0.4708-0.1232-0.3584-0.0567-0.7254 7e-4 -1.0499 0.1642-0.0753 0.0333-0.1424 0.0829-0.1968 0.1451 0.0087 0.0264 0.0205 0.0517 0.0353 0.0753 0.2211 0.3435 0.7421 0.4502 1.1083 0.5228 0.4002 0.0766 0.8072 0.1382 1.2182 0.1806z" fill="url(#be)"/>
<path d="m49.935 40.046c-0.0108 0.0411-0.0556 0.1547-0.0773 0.2423h0.6064c-0.0448-0.2286-0.0882-0.4571-0.1357-0.6843-0.0117-0.0446-0.014-0.0913-0.0067-0.1369 0.0116-0.0396 0.032-0.0761 0.0596-0.1067 0.0896-0.1177 0.2076-0.2354 0.2008-0.3846-0.1284 0.0137-0.2575 0.0192-0.3866 0.0164-0.1357 0-0.2713-0.0246-0.407-0.0246-0.0434 0 0.0828 0.2094 0.0896 0.2217 0.0752 0.0915 0.1319 0.1971 0.1668 0.3107 0.0055 0.0791-0.0042 0.1586-0.0285 0.234-0.0285 0.0944-0.0556 0.2012-0.0814 0.312z" fill="#FCD77F"/>
<path d="m65.343 44.894h-18.689v0.1601h18.689v-0.1601z" fill="#E1E5F0"/>
<path d="M65.4909 46H46.8015V46.1601H65.4909V46Z" fill="#E1E5F0"/>
<path d="m65.343 47.747h-18.689v0.1601h18.689v-0.1601z" fill="#E1E5F0"/>
<path d="m65.343 49.251h-18.689v1.0839h18.689v-1.0839z" fill="#E1E5F0"/>
<path d="m65.343 51.734h-18.689v0.1601h18.689v-0.1601z" fill="#E1E5F0"/>
<path d="m65.491 53.2h-18.689v0.1601h18.689v-0.1601z" fill="#E1E5F0"/>
<path d="m65.343 54.588h-18.689v0.12h18.689v-0.12z" fill="#E1E5F0"/>
<path d="m67.104 40.693c2.1315 0 3.8594-1.7432 3.8594-3.8936s-1.7279-3.8936-3.8594-3.8936-3.8595 1.7432-3.8595 3.8936 1.728 3.8936 3.8595 3.8936z" fill="url(#bd)"/>
<path d="m66.824 38.8-2.0222-2.1171 0.6621-0.6919 1.3601 1.4239 2.1157-2.2149 0.6621 0.6931-2.7778 2.9069z" fill="url(#bc)"/>
<path d="m31.841 78.156c-0.0814 2.1665-0.1085 4.3795-0.0923 6.5569 0.2374 0 0.8398 0.0314 0.8845 0 0.0448-0.0315 0.6498-4.4096 0.9388-6.5569h-1.731z" fill="url(#bb)"/>
<path d="m25.683 78.156c-0.3282 2.1665-0.6104 4.3795-0.8437 6.5569 0.2374 0 0.837 0.0314 0.8844 0 0.0475-0.0315 1.1558-4.4096 1.6903-6.5569h-1.731z" fill="url(#ba)"/>
<path d="m34.729 78.211c0.0801 2.1664 0.1086 4.3794 0.0923 6.5568-0.2388 0-0.8397 0.0315-0.8845 0-0.0448-0.0314-0.6498-4.4095-0.9388-6.5568h1.731z" fill="url(#az)"/>
<path d="m40.89 78.211c0.3283 2.1664 0.6091 4.3794 0.8438 6.5568-0.2374 0-0.837 0.0315-0.8845 0-0.0475-0.0314-1.1531-4.4095-1.6957-6.5568h1.7364z" fill="url(#ay)"/>
<path d="m41.822 78.925c-3.7023 0.5004-7.5657 0.3748-11.422 0.2495-0.671-0.0218-1.3419-0.0436-2.0116-0.0621-1.1011-0.032-2.068-0.0745-2.9576-0.3467-0.8732-0.2672-1.5959-0.7635-1.9615-1.4151-0.2045-0.4085-0.3543-0.8428-0.4454-1.2915l-0.0037-0.0181-0.0043-0.0179c-0.8957-3.7048-1.4712-7.4811-1.72-11.286l20.526 14.188zm0 0c-0.2594-0.0845-0.5359-0.1646-0.8325-0.2505-0.1593-0.0461-0.3243-0.0939-0.4955-0.1449-0.9785-0.2917-2.157-0.6952-3.0292-1.6707l-0.0011-0.0013c-0.6991-0.7846-1.0363-1.7761-1.2885-2.5422l-4e-4 -0.0013c-0.6027-1.8388-1.1213-3.703-1.5558-5.5926-0.0631-0.2738-0.1234-0.5433-0.183-0.8091-0.2579-1.1518-0.4998-2.2321-0.8808-3.2772-0.4628-1.2692-1.1186-2.4027-2.0362-3.1918l10.303 17.482zm-16.821-18.87h-1e-4c-1.8569 0.24-3.19 0.783-3.5794 2.1468l3.5795-2.1468zm0 0c2.4389-0.3154 4.8823-0.0178 6.5181 1.3882l-6.5181-1.3882zm-3.7047 4.6814c-0.063-0.9667-0.0861-1.7931 0.1251-2.5343l-0.1251 2.5343z" fill="#C9D4D9" stroke="#A6BFCA" stroke-width="2"/>
<path d="m41.877 78.893c-3.3812 0.4567-6.9089 0.3947-10.449 0.2779-0.2559-0.4174-0.615-0.7657-1.0469-1.0082l-0.0165-0.0093-0.0168-0.0086c-0.4002-0.2052-0.8329-0.3964-1.2294-0.5716-0.1876-0.0829-0.3671-0.1622-0.5313-0.2377-0.5465-0.2515-1.0248-0.5031-1.452-0.8302l14.742 2.3877zm0 0c-0.2593-0.0843-0.5357-0.1644-0.8321-0.2503-0.1592-0.0461-0.3242-0.0939-0.4955-0.1449-0.9785-0.2917-2.157-0.6952-3.0291-1.6707l-0.0012-0.0013c-0.6991-0.7846-1.0362-1.7761-1.2885-2.5422l-4e-4 -0.0013c-0.6026-1.8388-1.1212-3.703-1.5557-5.5926l7.2025 10.203zm-19.206-13.908 3e-4 9e-4c0.7442 2.4404 1.4893 4.8803 2.2354 7.3198l1e-4 5e-4c0.5487 1.7976 1.0877 3.3233 2.229 4.1989l-4.4648-11.52zm0 0c-0.4558-1.4898-0.7931-2.7688-0.5178-3.9115 0.6467-0.5896 1.6813-0.8912 2.9039-1.0504 2.4387-0.3153 4.882-0.0177 6.5177 1.3883l-8.9038 3.5736zm11.821 2.8955c-0.2579-1.1518-0.4998-2.2321-0.8809-3.2772-0.4628-1.2692-1.1186-2.4027-2.0362-3.1918l2.9171 6.469zm0 0c0.0594 0.2656 0.1198 0.535 0.1828 0.8086l-0.1828-0.8086zm-12.301-6.9498c-1e-3 0.0036-0.0021 0.0073-0.0031 0.0108l-0.9615-0.2746 0.4681 0.128 0.4965 0.1358z" fill="#C9D4D9" stroke="#A6BFCA" stroke-width="2"/>
<path d="m52.354 74.144c-0.1576-0.3653-0.395-0.69-0.6945-0.9498-0.9496-0.8293-2.5219-0.8882-3.9246-0.8895-3.1201 0-6.2334-0.0356-9.3494-0.0315-1.1382 0-2.2343-0.0493-3.3738 0.0123-0.1357 0.0069-0.3514 2.0761-0.3595 2.2595-0.0339 0.8513 0.1112 1.7244 0.6783 2.4635 0.662 0.8704 1.815 1.4438 3.0265 1.7545 1.2114 0.3106 2.4947 0.3859 3.7631 0.4598 1.1436 0.0671 2.3387 0.2559 3.4701 0.2327 0.0333-0.0052 0.0673-0.0035 0.0999 5e-3 0.0327 0.0085 0.0633 0.0235 0.09 0.0442 0.0173 0.0257 0.0255 0.0566 0.0231 0.0876 0.0597 1.6952 0.1198 3.3918 0.1804 5.0897 1.925 0 3.8947 0.0739 5.802-0.0136 0.2713-1.563 0.6783-3.1231 0.8235-4.6983 0.1044-1.1592 0.1668-2.3266 0.2455-3.4803 0.0556-0.8869-0.1479-1.5287-0.5006-2.3458z" fill="url(#ax)"/>
<path d="m50.749 77.195c-1.7826 1.0319-2.336 5.1527-2.507 7.5066 1.187 0.0137 2.3754 0.0192 3.5393-0.0342 0.2713-1.5629 0.6783-3.123 0.8235-4.6983 0.1044-1.1592 0.1668-2.3265 0.2455-3.4803 0.0597-0.8868-0.1438-1.5286-0.4965-2.3457-0.1576-0.3654-0.395-0.6901-0.6946-0.9498-0.7135-0.6254-1.7852-0.8129-2.8718-0.8677-0.9157 0.1369-2.142 0.4982-2.3767 1.5233-0.3853 1.6724-0.4925 6.0354 0.7379 4.6093 1.2305-1.426 6.1331-2.7207 3.6004-1.2632z" fill="url(#aw)"/>
<path d="m44.25 74.144c-0.1576-0.3657-0.3956-0.6904-0.6959-0.9498-0.9496-0.8293-2.5218-0.8882-3.9232-0.8895-3.1201 0-6.2334-0.0356-9.3508-0.0315-1.1368 0-2.2343-0.0493-3.3738 0.0123-0.1356 0.0069-0.3513 2.0761-0.3581 2.2595-0.0339 0.8513 0.1112 1.7244 0.6783 2.4635 0.662 0.8704 1.8137 1.4438 3.0251 1.7545 1.2114 0.3106 2.4947 0.3859 3.7645 0.4598 1.1436 0.0671 2.3387 0.2559 3.4701 0.2327 0.0331-0.0053 0.0669-0.0037 0.0994 0.0048 0.0324 0.0085 0.0628 0.0236 0.0891 0.0444 0.0174 0.0257 0.0255 0.0566 0.0231 0.0876 0.0606 1.6952 0.1212 3.3918 0.1818 5.0897 1.9236 0 3.8947 0.0739 5.802-0.0136 0.2713-1.563 0.6783-3.1231 0.8235-4.6983 0.1044-1.1592 0.1655-2.3266 0.2441-3.4803 0.057-0.8869-0.1478-1.5287-0.4992-2.3458z" fill="url(#av)"/>
<path d="m38.91 81.972c-0.2713-2.7193-0.3744-1.9707 1.2847-2.9424 1.659-0.9717-0.3229-0.5132-1.6591-0.5707-1.3363-0.0575-1.8694 0.0315-5.4982-1.0483s-3.2246-5.0842-3.2246-5.0842l0.0516-0.0548c-0.9903-0.0082-1.9575-0.041-2.9587 0.0137-0.1356 0.0068-0.3513 2.0761-0.3581 2.2595-0.0339 0.8513 0.1112 1.7244 0.6783 2.4634 0.662 0.8704 1.8137 1.4439 3.0251 1.7545 1.2114 0.3107 2.4947 0.386 3.7645 0.4599 1.1436 0.067 2.3387 0.2559 3.4701 0.2326 0.0331-0.0052 0.0669-0.0036 0.0993 0.0049 0.0325 0.0085 0.0629 0.0236 0.0892 0.0444 0.0174 0.0257 0.0255 0.0566 0.0231 0.0876 0.0606 1.6952 0.1212 3.3918 0.1818 5.0897 0.407 0 0.8234 0 1.2372 0.0096-0.0434-0.7691-0.1058-1.7011-0.2062-2.7194z" fill="url(#at)"/>
<path d="m30.212 73.118c0.1356-0.0725 0.2713-0.1369 0.4137-0.2039 1.3878-0.6241 2.7512-0.6638 4.238-0.6665 2.2247 0 4.449 0.0068 6.6729 0.0205 0 0-0.2401-2.1158-0.1668-2.2841 0.0624-0.1437 2.61 0.1628 2.8908 0.1806 1.0853 0.0685 2.1529 0.1656 3.2422 0.1875 0.0609 0.0057 0.1223-0.0013 0.1804-0.0205 0.058-0.0304 0.1082-0.074 0.1465-0.1273 0.3212-0.3982 0.5447-0.8673 0.6524-1.369 0.1077-0.5018 0.0966-1.0221-0.0324-1.5187-0.4178-1.5519-2.7905-0.895-3.8242-1.89-0.0814-0.078-0.1356-0.182-0.2157-0.26-0.0371-0.0426-0.0871-0.0717-0.1423-0.0829-0.0551-0.0111-0.1124-0.0036-0.1629 0.0213-0.0963-0.3517-0.1519-0.7048-0.2428-1.0565-0.1533-0.5885-0.2293-1.2003-0.3636-1.7956-0.3034-1.3024-0.6936-2.5826-1.168-3.832-0.6986-1.879-1.8666-3.004-3.8309-3.3557l-2.0946-0.3764c-1.792-0.3216-3.9408-0.5775-5.7518-0.3435-1.0364 0.1369-2.0688 0.5173-2.8285 1.2427-0.5507 0.5255-0.9333 1.2016-1.3009 1.8708-1.0622 1.9393-2.0701 3.921-2.7837 6.0217-0.2116 0.6323 3.7034 1.9762 4.0521 2.0871l-0.5304 3.3311c-0.1655 1.0442-0.2225 2.4073-0.6471 3.3694-0.1221 0.2737-0.3025 0.5173-0.4301 0.787-0.1155 0.2646-0.2063 0.5395-0.2713 0.8211-0.1099 0.427-0.2197 0.8704-0.1356 1.3029 0.0841 0.4324 0.4069 0.854 0.841 0.8895 0.5739-0.9347 1.3932-1.5533 2.2981-2.1486 0.4205-0.2847 0.8478-0.5652 1.2955-0.802z" fill="url(#as)"/>
<path d="m48.356 68.648c-1.5316-0.2012-3.0034-0.4694-3.2286-0.7746-0.3934-0.5324-0.5264-2.343-0.7923-2.7577-0.0167-0.0092-0.0345-0.0166-0.0529-0.0219h-0.0081c-0.0186-0.0052-0.0377-0.0084-0.057-0.0095-0.0166-0.0028-0.0336-0.0028-0.0502 0h-0.0136c-0.0166 0.0053-0.0325 0.0126-0.0474 0.0219-0.4477 0.572-0.1126 2.7645-0.6946 2.4059s-1.5302-2.3047-1.7337-3.5323-0.8492-5.7056-0.9713-5.3976c-0.1221 0.3079 0.3188 3.5076 0.3785 5.3976 0.0461 1.4617 0.2035 4.7325 0.2713 6.1381v-0.0452-0.0356c-6e-4 -0.0027-6e-4 -0.0055 0-0.0082-8e-4 -0.0068-8e-4 -0.0137 0-0.0205-0.0013-0.0068-0.0013-0.0138 0-0.0205 0.0624-0.1437 2.606 0.1628 2.8895 0.1806l2.1366 0.1369c0.3635 0.0232 0.7271 0.0438 1.092 0.0561 0.0637-0.0136 0.1239-0.0404 0.1769-0.0785s0.0976-0.0869 0.1311-0.1432c0.0949-0.1752 0.0488-0.3942 0.1031-0.5858 0.05-0.1323 0.1185-0.2567 0.2034-0.3695 0.1114-0.1666 0.2012-0.3469 0.2673-0.5365z" fill="url(#ar)"/>
<path d="m43.671 58.356-4.5174 11.114h9.4729l4.5174-11.114h-9.4729z" fill="url(#aq)"/>
<path d="m43.79 58.722-4.5187 11.114h9.4729l4.5187-11.114h-9.4729z" fill="#C9D4D9" opacity=".4"/>
<path d="m30.132 60.595c-0.0529-0.3996-0.1356-0.8334-0.4286-1.1017-0.0405-0.042-0.0933-0.0699-0.1506-0.0794-0.1574-0.0109-0.2266 0.1957-0.2428 0.3545-0.152 1.3864-0.2225 2.9493-0.6349 4.2754-0.0109 0.0478-0.0343 0.0918-0.0678 0.1273-0.0464 0.0301-0.101 0.0444-0.156 0.0411l-1.849 0.0725c-0.0353 0.0506 0.0325 0.1108 0.0895 0.1368 0.5779 0.2423 1.1788 0.3545 1.7337 0.631-0.2293 0.6076-0.7326 1.1372-0.8384 1.8024-0.1058 0.6651-0.2157 1.359-0.3242 2.0391-0.1655 1.0443-0.2225 2.4074-0.6471 3.3695-0.1221 0.2737-0.3025 0.5173-0.43 0.7869-0.1155 0.2646-0.2064 0.5395-0.2713 0.8211-0.1099 0.427-0.2198 0.8704-0.1357 1.3029s0.407 0.854 0.8411 0.8896c0.4938-0.8047 1.1694-1.3686 1.9236-1.8969 0.0561-0.5978 0.1467-1.1919 0.2713-1.7791 0.1777-0.7609 0.4789-1.4876 0.7217-2.2294 0.9971-3.0629 1.0229-6.3721 0.5955-9.5636z" fill="url(#ap)"/>
<path d="m41.37 68.904c0.0983-0.1031 0.189-0.2133 0.2713-0.3298 0.0514-0.0835 0.116-0.1579 0.1913-0.2204 0.0781-0.0499 0.1645-0.0851 0.255-0.104l1.1463-0.3148c0.407-0.1122 0.8289-0.2135 1.0052-0.65 0.0231-0.0561 0.0326-0.1369-0.0217-0.1643-0.0167-0.0072-0.0348-0.0105-0.0529-0.0095l-0.3039-0.0151c0.2825-0.0767 0.5399-0.2273 0.7462-0.4366 0.0282-0.0252 0.0497-0.0572 0.0624-0.093 0.0049-0.0367-0.0032-0.074-0.0228-0.1053-0.0196-0.0312-0.0495-0.0546-0.0844-0.0658-0.0702-0.0203-0.1441-0.0236-0.2157-0.0096 0.1663-0.0906 0.3141-0.2123 0.4354-0.3586 0.0174-0.0212 0.0294-0.0463 0.0351-0.0733 0.0057-0.0269 0.0048-0.0548-0.0025-0.0813-0.0257-0.0424-0.0664-0.0732-0.1139-0.0862-0.4586-0.1752-0.9279-0.26-1.3756-0.4612-0.2293-0.1027-0.4924-0.0698-0.742-0.0589-0.2612 0.011-0.5228-0.0027-0.7814-0.041 0.1668-0.0849 0.3215-0.1821 0.4924-0.2628 0.087-0.0436 0.1778-0.0789 0.2713-0.1054 0.3975-0.0999 0.814 0.0903 1.2345-0.0301 0.1327-0.0315 0.2523-0.1043 0.3418-0.208 0.0226-0.0238 0.0378-0.0536 0.0438-0.0859 6e-3 -0.0324 0.0026-0.0657-0.0098-0.0961-0.0299-0.0363-0.071-0.0614-0.1167-0.0712l-0.9279-0.2956c-0.0803-0.0297-0.1643-0.0481-0.2496-0.0548-0.0703 3e-4 -0.1403 0.0081-0.2089 0.0233-0.7434 0.1369-1.48 0.2559-2.1949 0.5119-0.177 0.0555-0.3461 0.1337-0.5033 0.2326-0.1571 0.1204-0.3005 0.2581-0.4273 0.4106-0.5332 0.5803-1.1477 1.2741-1.8219 1.6902-0.5576 0.3435-1.3471 0.3969-1.986 0.3804-1.4448-0.0383-2.823-0.531-4.2162-0.854h-0.0245c-0.3293 0.4296-0.5676 0.923-0.6999 1.4494-0.1194 0.5624-0.034 1.1934 0.3337 1.6327 0.1541 0.1809 0.3458 0.3253 0.5616 0.4229 0.156 0.0739 0.5182 0 0.6932 0h0.7447c0.4301 0 0.8479 0.0205 1.2739-0.0165 0.9606-0.0819 1.9269-0.0645 2.884 0.052 0.4902 0.078 0.9843 0.1287 1.48 0.152 0.4982 0.0242 0.9937-0.0864 1.4353-0.3203 0.4292-0.2333 0.8219-0.5294 1.1653-0.8786z" fill="url(#ao)"/>
<path d="m23.975 69.178c0.0841 0.0342 0.1709 0.0616 0.2578 0.0876 3.0956 0.9334 6.3758 0.999 9.6031 1.0579 0.586 0.0096 1.2046 0.0123 1.7147-0.2737-0.4477-0.4735-0.3893-1.2317-0.2265-1.8626 0.1139-0.4476 0.3947-0.9772 0.8519-0.9334-0.1922-0.1444-0.4168-0.2384-0.6539-0.2737-2.4554-0.5684-4.8895-1.2185-7.3024-1.9502-0.7407-0.2245-1.4786-0.4571-2.2153-0.6843-0.7634-0.2173-1.5076-0.4984-2.2247-0.8403-0.2257 0.5004-0.3849 1.0286-0.4735 1.5711-0.1478 1.1975-0.3662 2.3088 0.1058 3.4803 0.0595 0.1729 0.1569 0.3301 0.2849 0.4598 0.0828 0.0696 0.1769 0.1242 0.2781 0.1615z" fill="url(#an)"/>
<path d="m39.979 63.132c0.0554-0.0689 0.0973-0.1479 0.1234-0.2326 0.0148-0.116-2e-4 -0.2337-0.0434-0.3422-0.1356-0.4379-0.2265-0.9183-0.4191-1.3316-0.1927-0.4133-0.3772-0.8102-0.5644-1.2153-0.2265-0.4858 0.3649-1.125 0.6118-1.5533 0.1286-0.2561 0.3002-0.4876 0.5074-0.6843-0.1831-0.6843-0.2103-1.3289-0.4572-1.9872-0.0542-0.1368-0.1112-0.2833-0.1682-0.4242-0.3455-0.1354-0.7036-0.2354-1.069-0.2984l-2.0959-0.375c-1.4447-0.2586-3.1201-0.4749-4.6625-0.427-0.0393 0.0808-0.0773 0.1629-0.1139 0.245l-0.7733 1.6792c-0.1194 0.2601-0.2401 0.5201-0.3595 0.7815-0.0732 0.1274-0.1094 0.273-0.1044 0.4201 0.0393 0.2929 0.8438 0.6241 1.073 0.7719l1.4922 0.958c0.3471 0.2219 0.6809 0.4641 0.9998 0.7254 0.0253 0.0165 0.0444 0.0411 0.0543 0.0698 0.0014 0.0262-0.0047 0.0524-0.0176 0.0752-0.4002 0.8923-0.8452 1.7409-1.2209 2.6496-0.2605 0.6145 0.1166 0.7869 0.5968 1.1496 0.438 0.3264 0.8961 0.6244 1.3715 0.8923 0.9894 0.5353 2.0065 1.0169 3.0469 1.4425 0.8085-0.9101 1.5017-1.9817 2.1922-2.989z" fill="url(#am)"/>
<path d="m33.139 54.278c0.1784 0.7562 0.4381 1.4904 0.7746 2.1897 1.073 2.2965 3.8743 9.6443 3.8743 9.6443s0.3202-5.113 0.643-7.5805c0.1388-1.1529 0.166-2.3166 0.0814-3.4748h-0.0122l-2.0945-0.3682c-1.0799-0.2017-2.1707-0.3388-3.2666-0.4105z" fill="url(#al)"/>
<path d="m35.94 61.364c0.6946 1.9242 1.8476 4.7558 1.8476 4.7558s0.2117-3.004 0.3704-4.9529c-0.1913-0.5474-0.4857-1.4452-0.6349-2.009-0.0581-0.1734-0.0812-0.3567-0.0678-0.5393 0.0285-0.1943 0.1533-0.3284 0.2211-0.5022 0.117-0.3016 0.1476-0.6302 0.0882-0.9484-0.0081-0.0883-0.0471-0.1707-0.1099-0.2327-0.1435 0.0582-0.2771 0.1385-0.3961 0.2381-0.0461 0.0315-0.0876 0.0693-0.1235 0.1123-0.0854 0.1163-0.0949 0.2354-0.2292 0.3024-0.0752 0.04-0.1577 0.0638-0.2424 0.0702-0.0848 0.0064-0.1699-5e-3 -0.2501-0.0332-0.0372-0.0191-0.0734-0.0401-0.1085-0.063-0.1855-0.1076-0.3798-0.1991-0.5806-0.2737-0.0502-0.0192-0.118-0.0301-0.1479 0.015-0.0101 0.0199-0.0152 0.042-0.0149 0.0644 0 0.1765-0.0244 0.375 0.076 0.5241 0.1162 0.1443 0.2457 0.2771 0.3866 0.3969 0.3771 0.3791 0.407 0.5953 0.2903 1.1359-0.1234 0.5748-0.293 1.3686-0.3744 1.9393z" fill="url(#ak)"/>
<path d="m35.809 67.053c-0.9048 0.4557-1.1762 1.8571-1.1762 1.8571s0 0.1916-2.2125 0.1916c-2.2126 0-6.4478-0.5378-7.2441-1.7695-0.3893-0.605-0.4382-1.3522-0.3459-2.0529 0.0344-0.2175 0.0797-0.4331 0.1356-0.646 0.2497-1.0606 0.1927-2.0528 0.5427-3.1025 0.3771-1.1455 0.8139-2.2664 1.2209-3.4009 0.36-0.958 0.8063-1.8807 1.3335-2.7563-0.0814 0.0657-0.1614 0.1368-0.2374 0.208-0.5508 0.5255-0.9333 1.2016-1.301 1.8708-1.0622 1.9393-2.0701 3.921-2.7836 6.0217-0.0122 0.0369-0.0122 0.0768 0 0.1136-0.2078 0.4727-0.3542 0.9704-0.4355 1.4808-0.1479 1.1975-0.3663 2.3088 0.1058 3.4803 0.0595 0.1729 0.1569 0.3301 0.2849 0.4599 0.0822 0.0724 0.1763 0.1299 0.2781 0.1697 0.0841 0.0342 0.1709 0.0615 0.2577 0.0875 3.0957 0.9334 6.3759 0.9991 9.6032 1.0579 0.586 0.0096 1.2046 0.0124 1.7147-0.2737-0.4477-0.4735-0.3893-1.2317-0.2266-1.8626 0.114-0.4475 0.3948-0.9772 0.852-0.9334-0.1069-0.092-0.2317-0.1605-0.3663-0.2011z" fill="url(#ai)"/>
<g filter="url(#bt)">
<path d="m38.766 55.191c-0.1357-0.4475-0.3297-0.8635-0.639-1.14-0.2713-0.2181-0.5798-0.3846-0.9102-0.4913-0.617-0.253-1.2682-0.4107-1.9318-0.4681-0.6457-0.0355-1.3986 0.0972-1.9371 0.4736-0.7611 0.5296-0.7828 1.5766-0.6091 2.4114 0.157 0.6421 0.3812 1.2655 0.6688 1.8599l0.8736 1.9831c0.1872-0.3463 0.392-0.646 0.605-0.9731 0.1899-0.2819 0.3812-0.5625 0.5874-0.8321 0.1234-0.1601 0.3066-0.4667 0.5087-0.5406 0.1519-0.0547 0.2184 0.0466 0.35 0.1122 0.1012 0.0511 0.2141 0.0739 0.327 0.0659 0.1128-0.0079 0.2215-0.0463 0.3147-0.111 0.0389-0.0301 0.0761-0.0626 0.1112-0.0972 0.1357-0.1368 0.194-0.2217 0.3839-0.2217 0.1164 0.0507 0.2121 0.1401 0.2713 0.2532 0.1357 0 0.6607 1.0114 0.814 1.1592 0.2792 0.2866 0.5171 0.6114 0.7067 0.9648 0.0563-0.9989-0.0061-2.0009-0.1858-2.9848-0.0752-0.4802-0.1785-0.9555-0.3093-1.4234z" fill="url(#ah)"/>
</g>
<g filter="url(#bs)">
<path d="m38.607 55.435c0.0358-0.1008 0.0639-0.2042 0.0841-0.3093-0.1093-0.2751-0.2764-0.523-0.4897-0.7267-0.2714-0.2181-0.5798-0.3846-0.9103-0.4914-0.6169-0.2529-1.2681-0.4107-1.9317-0.468-0.6457-0.0356-1.3986 0.0972-1.9372 0.4735-0.1751 0.1212-0.3219 0.2795-0.43 0.464 0.0607 0.2063 0.1566 0.4004 0.2835 0.5734 0.2049 0.2901 0.4626 0.5365 0.6783 0.8143s0.4246 0.6254 0.7108 0.8649c0.2863 0.2395 0.6485 0.3654 0.989 0.5187 0.2713 0.1246 0.6878 0.4941 0.9781 0.5187s0.5521-0.3599 0.7379-0.5351c0.5128-0.4804 1.0012-1.0223 1.2372-1.697z" fill="url(#ag)"/>
</g>
<path d="m42.7 48.344c0.2021-1.1619 0.2401-2.3361-0.2456-3.3858-1.328-2.874-5.2906-3.4214-7.4489-1.1551-1.05 1.1045-1.3484 2.7372-1.3375 4.2672 0.0081 1.0552 0.1356 2.1035 0.179 3.1573 0.0231 0.6022 0.0461 1.2482-0.0949 1.8367-0.1357 0.5679-0.1235 1.1687-0.1506 1.7572-0.0082 0.1793 2.6182 2.473 3.2557 2.9602 0.2619-0.5803 0.6661-1.5547 0.9279-2.1336 0.2619-0.5789 0.3405-1.166 0.5427-1.7572 0.0231-0.1074 0.0814-0.2038 0.1655-0.2737 0.0732-0.0381 0.1551-0.056 0.2374-0.0521 1.2046-0.0533 2.1935-0.3722 2.8488-1.4794 0.4069-0.6843 0.6023-1.4753 0.7922-2.2527 0.1234-0.4831 0.2415-0.984 0.3283-1.489z" fill="url(#af)"/>
<path d="m41.166 42.782c-0.9094-0.2201-1.8348-0.367-2.7674-0.4393-0.3093-0.0232-0.6403-0.0342-0.9075 0.1232-1.0988 0.6432 0.6593 1.2085 1.0324 1.4931 0.704 0.5406 1.2616 1.2618 2.0239 1.7258 0.3855 0.2213 0.7952 0.3963 1.221 0.5214 0.3454 0.1174 0.7017 0.1995 1.0635 0.245 0.0317-0.7088-0.1001-1.4153-0.3853-2.0638-0.291-0.6323-0.7306-1.1833-1.2806-1.6054z" fill="url(#ae)"/>
<path d="m36.015 47.041c0.0416-0.1694 0.1284-0.3242 0.2509-0.4475 0.1388-0.1025 0.2853-0.1941 0.4382-0.2737 0.4531-0.3079 0.5616-0.9389 0.738-1.4274 0.0732-0.2026 0.2889-1.0703 0.5684-1.0949 0.4069-0.0328 0.7827 0.1656 1.1381 0.3558 1.1748 0.6282 2.4513 1.2523 3.7699 1.0867 0.5101-0.0643 1.0636-0.3066 1.2209-0.7993 0.0542-0.1852 0.0644-0.3807 0.0299-0.5707-0.0536-0.3316-0.1856-0.6453-0.3849-0.9146-0.1993-0.2692-0.46-0.4859-0.7601-0.6319-0.3974-0.1888-0.8437-0.2422-1.2629-0.3749-1.183-0.375-2.1543-1.3768-3.3914-1.4918-1.3973-0.1368-3.1486 0.906-3.8676 2.1063-0.7841 1.3138-2.2668 0.6295-2.6819 2.4908-0.2483 1.1085 0.0718 2.0857 0.5548 3.0738 0.339 0.7016 0.5931 1.4419 0.7569 2.2047 0.0326 0.1478 0.35 1.8545 0.6607 1.6724 0.0304-0.0215 0.054-0.0514 0.0678-0.0862 0.3066-0.5803 0.8425-1.3562 0.7163-2.0528-0.0449-0.1853-0.1196-0.362-0.2211-0.5228-0.289-0.5242-0.563-1.1113-0.4558-1.7012 0.0344-0.2235 0.1424-0.4289 0.3066-0.583 0.0825-0.0763 0.1836-0.1291 0.293-0.1532 0.1094-0.024 0.2231-0.0184 0.3296 0.0164 0.4477 0.1738 0.4667 0.8211 0.8235 1.1496 0.2455-0.2669 0.2577-0.6775 0.3622-1.0306z" fill="url(#ad)"/>
<path d="m36.173 51.161c-0.0556-0.1191-0.236-0.7349-0.4341-0.323-0.0337 0.0937-0.0425 0.1947-0.0258 0.2929 0.0346 0.5576 0.1358 1.109 0.3012 1.6423 0.1694 0.5375 0.5056 1.0058 0.9591 1.3357 0.3063 0.1863 0.6363 0.3299 0.9808 0.427l0.0366 0.0192c0.1262-0.4106 0.2076-0.8212 0.3473-1.2318 0.0232-0.1073 0.0815-0.2037 0.1655-0.2737-0.4504-0.2956-0.9618-0.5474-1.4081-0.8635-0.391-0.2546-0.709-0.608-0.9225-1.0251z" fill="#000" fill-opacity=".2"/>
<path d="m36.597 43.631c-0.7868 1.1428-2.0932 2.1145-3.4375 2.1213-0.7773 0-1.0975-0.5761-1.2318-1.0675-0.0443 0.12-0.0802 0.2431-0.1071 0.3682-0.2483 1.1085 0.0718 2.0857 0.5548 3.0738 0.339 0.7017 0.5931 1.4419 0.7569 2.2048 0.0326 0.1478 0.35 1.8544 0.6607 1.6724 0.0304-0.0215 0.054-0.0515 0.0678-0.0863 0.3066-0.5802 0.8425-1.3562 0.7163-2.0528-0.0449-0.1853-0.1196-0.3619-0.2211-0.5228-0.289-0.5242-0.563-1.1113-0.4558-1.7011 0.0344-0.2236 0.1424-0.429 0.3066-0.5831 0.0825-0.0762 0.1836-0.1291 0.293-0.1531 0.1094-0.0241 0.2231-0.0184 0.3296 0.0163 0.4477 0.1738 0.4667 0.8211 0.8235 1.1496 0.2428-0.2737 0.2577-0.6843 0.3622-1.036 0.0416-0.1695 0.1284-0.3242 0.2509-0.4475 0.1388-0.1026 0.2853-0.1941 0.4382-0.2738 0.4531-0.3079 0.5616-0.9388 0.738-1.4274 0.0845-0.3051 0.1971-0.6015 0.3364-0.8854-0.3595-0.5352-0.8031-0.9197-1.1816-0.3696z" fill="url(#ac)"/>
<path d="m34.726 49.132c0.0501 0.0817 0.1202 0.1491 0.2035 0.1957 0.042 0.022 0.0904 0.0282 0.1365 0.0177 0.0462-0.0105 0.0872-0.0371 0.1158-0.0752 0.0299-0.0732 0.0299-0.1553 0-0.2285l-0.2496-1.0018c-0.0841-0.3408-0.4165-0.7035-0.643-0.2477-0.194 0.3982 0.2197 1.036 0.4368 1.3398z" fill="url(#ab)"/>
<path d="m39.296 50.486s0.0274 1.1783 1.596 1.1783" stroke="#9F2E00" stroke-width=".3"/>
<path d="m41.57 47.406c-0.0278 0.2196 0.1257 0.4199 0.3433 0.4481 0.2177 0.0281 0.4171-0.1267 0.445-0.3462 0.0277-0.2189-0.1264-0.4201-0.3441-0.4483-0.2176-0.0281-0.4164 0.1275-0.4442 0.3464" clip-rule="evenodd" fill="#1E1147" fill-rule="evenodd"/>
<path d="m39.235 47.104c-0.0279 0.2196 0.1256 0.42 0.3432 0.4481 0.2177 0.0281 0.4171-0.1266 0.445-0.3462 0.0278-0.2189-0.1264-0.4201-0.344-0.4482-0.2177-0.0282-0.4164 0.1274-0.4442 0.3463" clip-rule="evenodd" fill="#1E1147" fill-rule="evenodd"/>
<path d="m38.238 45.622s1.384-0.3873 2.1377 0.5783c0 0-1.2933 0.4953-2.1377-0.5783" clip-rule="evenodd" fill="#9E2D01" fill-rule="evenodd"/>
<path d="m43.912 46.356s-1.2425-0.7269-2.2132 0.0158c0 0 1.1277 0.8082 2.2132-0.0158" clip-rule="evenodd" fill="#9E2D01" fill-rule="evenodd"/>
<path d="m38.158 61.167c-0.1912-0.5474-0.4856-1.4452-0.6348-2.0091-0.0581-0.1733-0.0812-0.3567-0.0679-0.5392 0.0043-0.0263 0.0102-0.0524 0.0177-0.078-0.0367-0.13-0.0706-0.2614-0.1031-0.3928-0.0116-0.1061-0.0624-0.2038-0.1425-0.2737-0.054-0.0293-0.1162-0.0393-0.1766-0.0284-0.0603 0.0109-0.1152 0.0422-0.1557 0.0886-0.0792 0.0936-0.1342 0.2055-0.1601 0.3258-0.1195 0.4422-0.2062 0.8928-0.2591 1.348-0.08 0.6035-0.232 1.0442-0.3961 2.1391 0.5697 1.5656 1.5505 4.0126 1.7079 4.3726 0.0407-0.026 0.2401-3.4475 0.3703-4.9529z" fill="url(#aa)"/>
<path d="m50.659 64.731c-0.1452-0.1985-0.4599-0.2067-0.6783-0.2614l-0.9876-0.2463c-0.0122-0.0085-0.0267-0.013-0.0415-0.0132-0.0148-1e-4 -0.0293 0.0042-0.0417 0.0124-0.0123 0.0083-0.022 0.02-0.0277 0.0338s-0.0073 0.0289-0.0044 0.0436c-0.0211 0.0823-0.0253 0.168-0.0126 0.2521 0.0128 0.084 0.0424 0.1645 0.0869 0.2367 0.0445 0.0721 0.1031 0.1344 0.1721 0.1831 0.0691 0.0486 0.1473 0.0827 0.2297 0.1l1.0432 0.4434c0.0326 0.0137-0.0515 0.1902-0.0651 0.2162 0.0841-0.0835 0.2144-0.13 0.289-0.2217 0.0886-0.1055 0.1393-0.2381 0.1438-0.3763 0.0089-0.1422-0.0283-0.2834-0.1058-0.4024z" fill="url(#z)"/>
<path d="m49.806 65.696c-0.3617 0.0151-0.724 0.011-1.0853-0.0123-0.0216-0.0036-0.0437-7e-4 -0.0637 0.0082-0.0204 0.0152-0.034 0.0378-0.038 0.063-0.095 0.3325 0.1167 0.4489 0.3025 0.6487-0.0812 0.0219-0.1596 0.0536-0.2333 0.0944-0.0231 0.1478-0.0407 0.3189 0.0597 0.4297 0.0516 0.0499 0.1138 0.0873 0.1817 0.1095l0.331 0.1369c-0.1594-0.0043-0.3175-0.0315-0.4693-0.0808-0.0343 0.0694-0.0504 0.1464-0.0468 0.2237 0.0036 0.0774 0.0267 0.1526 0.0671 0.2184 0.1262 0.1984 0.6471 0.4584 0.8777 0.375 0.0344-0.0165 0.0645-0.0408 0.088-0.0709 0.0236-0.0302 0.0399-0.0654 0.0477-0.1029 0.0217-0.0753 0.0258-0.1533 0.0515-0.2259 0.0707-0.134 0.1557-0.2597 0.2537-0.3749 0.1167-0.1862 0-0.479 0.1438-0.6022 0.2089-0.1766 0.392-0.2587 0.2957-0.5926-0.0164-0.0601-0.0472-0.1152-0.0898-0.1603s-0.0957-0.0789-0.1544-0.0984c-0.0695-0.015-0.1411-0.0178-0.2116-0.0082-0.1071 0.011-0.2035 0.0178-0.3079 0.0219z" fill="url(#x)"/>
<path d="m62.081 61.503c-0.0637-0.5844 0.0272-1.2523-0.156-1.8175-0.1682-0.5228-0.312-0.9977-0.3066-1.5629 0.01-0.1337-0.0014-0.2682-0.0339-0.3982-0.0174-0.0648-0.0529-0.1232-0.1022-0.1683-0.0492-0.0451-0.1103-0.0751-0.1759-0.0863-0.1994-0.015-0.3337 0.1971-0.4151 0.3805-0.0651 0.1334-0.1134 0.2746-0.1438 0.4201-0.0214 0.2168-0.0136 0.4354 0.0231 0.6501 0.0342 0.3464 0.0255 0.6958-0.0258 1.0401-0.0031 0.0605-0.026 0.1183-0.0651 0.1642-0.1194 0.1136-0.2713-0.1779-0.3405-0.2518-0.1994-0.2367-0.3459-0.5118-0.5236-0.7636-0.2825-0.3997-0.5446-0.8135-0.7855-1.24-0.2157-0.3832-0.426-0.7801-0.6037-1.181-0.1587-0.3559-0.3215-0.6542-0.7312-0.761-0.099-0.026-0.2374-0.0123-0.2577 0.089-0.0037 0.0411 0.0043 0.0824 0.0231 0.1191 0.1356 0.3695 0.0366 0.5802-0.0936 0.9333-0.0829 0.2233-0.1031 0.4653-0.0584 0.6994 0.0506 0.164 0.0775 0.3345 0.0801 0.5063-0.0417 0.1754-0.1056 0.3447-0.19 0.5037-0.1587 0.4283-0.0176 0.9032 0 1.359 0.0299 0.5967-0.0434 1.1619 0.2239 1.7203 0.1963 0.3738 0.4339 0.7241 0.7081 1.0442 0.1356 0.1866 0.2958 0.3538 0.4762 0.4968 0.4069 0.2915 0.9496 0.3229 1.3565 0.6035 0.3256 0.2231 0.5332 0.5789 0.7719 0.8964 0.2388 0.3175 0.5508 0.6227 0.9496 0.6624 0.1867 0.0123 0.3734-0.0235 0.5426-0.104 0.2931-0.1437 0.5421-0.3647 0.7208-0.6396 0.1786-0.2749 0.2802-0.5935 0.2939-0.9219 0.0144-0.1177 0.0047-0.237-0.0284-0.3507-0.0332-0.1137-0.089-0.2193-0.1642-0.3104-0.2469-0.2518-0.5033-0.3476-0.6783-0.6842-0.1619-0.3272-0.2604-0.6826-0.2903-1.047z" fill="url(#w)"/>
<path d="m65.569 74.144c0.1576-0.3653 0.395-0.69 0.6946-0.9498 0.9496-0.8293 2.5232-0.8882 3.9245-0.8895 3.1201 0 6.2402-0.0356 9.3508-0.0315 1.1368 0 2.2329-0.0493 3.3738 0.0123 0.1289 0.0069 0.35 2.0761 0.3581 2.2595 0.034 0.8513-0.1112 1.7244-0.6782 2.4635-0.662 0.8704-1.8138 1.4438-3.0265 1.7545-1.2128 0.3106-2.4948 0.3859-3.7632 0.4598-1.1436 0.0671-2.3387 0.2559-3.4701 0.2327-0.0331-0.0053-0.0669-0.0037-0.0993 0.0048-0.0325 0.0085-0.0628 0.0236-0.0892 0.0444-0.0178 0.0256-0.0264 0.0565-0.0244 0.0876-0.0597 1.6952-0.1199 3.3918-0.1805 5.0897-1.9236 0-3.8947 0.0739-5.802-0.0136-0.2713-1.563-0.6783-3.1231-0.8234-4.6983-0.1045-1.1592-0.1669-2.3266-0.2456-3.4803-0.0556-0.8869 0.1479-1.5287 0.5006-2.3458z" fill="url(#v)"/>
<path d="m70.907 81.972c0.2713-2.7193 0.3744-1.9707-1.2833-2.9424s0.3215-0.5132 1.6577-0.5707 1.8707 0.0315 5.4982-1.0483c3.6274-1.0798 3.2259-5.0842 3.2259-5.0842l-0.0515-0.0548c0.9903-0.0082 1.9575-0.041 2.9586 0.0137 0.1289 0.0068 0.35 2.0761 0.3582 2.2595 0.0339 0.8513-0.1113 1.7244-0.6783 2.4634-0.662 0.8704-1.8137 1.4439-3.0265 1.7545-1.2128 0.3107-2.4948 0.386-3.7631 0.4599-1.1436 0.067-2.3388 0.2559-3.4701 0.2326-0.0331-0.0052-0.067-0.0036-0.0994 0.0049s-0.0628 0.0236-0.0892 0.0444c-0.0178 0.0255-0.0264 0.0565-0.0244 0.0876-0.0597 1.6952-0.1199 3.3918-0.1804 5.0897-0.407 0-0.8248 0-1.2386 0.0096 0.0434-0.7691 0.1058-1.7011 0.2062-2.7194z" fill="url(#u)"/>
<path d="m60.394 74.144c0.1576-0.3653 0.395-0.69 0.6945-0.9498 0.9496-0.8293 2.5219-0.8882 3.9246-0.8895 3.1201 0 6.2334-0.0356 9.3495-0.0315 1.1381 0 2.2342-0.0493 3.3737 0.0123 0.1357 0.0069 0.3514 2.0761 0.3595 2.2595 0.0339 0.8513-0.1112 1.7244-0.6783 2.4635-0.662 0.8704-1.815 1.4438-3.0265 1.7545-1.2114 0.3106-2.4947 0.3859-3.7631 0.4598-1.1436 0.0671-2.3387 0.2559-3.4701 0.2327-0.0333-0.0052-0.0673-0.0035-0.0999 5e-3 -0.0327 0.0085-0.0633 0.0235-0.09 0.0442-0.0173 0.0257-0.0255 0.0566-0.0231 0.0876-0.0597 1.6952-0.1198 3.3918-0.1804 5.0897-1.925 0-3.8947 0.0739-5.802-0.0136-0.2713-1.563-0.6783-3.1231-0.8235-4.6983-0.1044-1.1592-0.1668-2.3266-0.2455-3.4803-0.0556-0.8869 0.1533-1.5287 0.5006-2.3458z" fill="url(#t)"/>
<path d="m61.996 77.195c1.7825 1.0251 2.336 5.1527 2.5083 7.5066-1.187 0.0137-2.3754 0.0192-3.5393-0.0342-0.2713-1.5629-0.6783-3.123-0.8234-4.6983-0.1045-1.1592-0.1669-2.3265-0.2456-3.4803-0.0597-0.8868 0.1438-1.5286 0.4965-2.3457 0.1576-0.3654 0.3951-0.6901 0.6946-0.9498 0.7135-0.6254 1.7852-0.8129 2.8718-0.8677 0.9157 0.1369 2.1421 0.4982 2.3767 1.5233 0.3853 1.6724 0.4925 6.0354-0.7379 4.6093-1.2304-1.426-6.1344-2.7207-3.6017-1.2632z" fill="url(#s)"/>
<path d="m79.396 44.493c-0.9971-2.1624-3.698-3.0232-6.0462-2.7591-1.1504 0.1287-2.393 0.5611-2.9343 1.5917-0.2713 0.5173-0.3283 1.1167-0.3812 1.6984-0.1601 1.8051-0.4734 3.8539 0.08 5.6207 0.3053 0.9772 1.0188 1.8886 2.005 2.1391 0.3297 0.0835 0.7326 0.1286 0.8859 0.4352 0.0513 0.1273 0.0771 0.2636 0.076 0.401 0.0291 0.4505 0.1065 0.8965 0.2306 1.3302 0.0225 0.1081 0.0688 0.2096 0.1356 0.297 0.1058 0.0991 0.2377 0.1652 0.3799 0.1902 1.3056 0.3395 2.6794 0.3025 3.9652-0.1067 0.0801-0.0164 0.1518-0.061 0.2021-0.1259 0.0303-0.0663 0.0397-0.1403 0.0272-0.2121-0.0597-0.7377 0.0203-1.4849 0-2.2336-0.0102-0.1261 0.0017-0.253 0.0352-0.3749 0.0645-0.147 0.1567-0.2799 0.2714-0.3915 0.9319-1.062 0.9618-2.2211 1.0852-3.535 0.1357-1.4315 0.407-2.7686-0.1519-4.1604" fill="url(#r)"/>
<path d="m69.432 45.274c0.3201 0.3024 0.8424 0.3517 1.0961 0.713 0.4599 0.6528-0.2591 1.8531 0.4327 2.2486 0.019-0.3805 0.0462-0.7856 0.2714-1.0949 0.2251-0.3093 0.723-0.4352 0.9794-0.1546 0.1574 0.1738 0.1696 0.4338 0.1642 0.6706-0.0299 1.1509-0.1656 2.15 0.2089 3.301 0.6972 0.8348 0.7746 0.6323 1.5329 1.0291 0.6159 0.3217 1.3335 0.3682 2.0348 0.386 1.0853 0.0273 2.5219 0.1916 2.9845-0.8609 0.4924-1.1263 0.9035-1.1331 1.286-2.3074 0.3568-1.0948 0.5847-2.6003-0.0529-3.6349-0.1558-0.2114-0.292-0.4368-0.407-0.6733-0.1153-0.2998-0.1004-0.6309-0.1234-0.9512-0.1235-1.6943-1.5126-3.2079-3.1757-3.4625-0.8696-0.1368-1.7527 0.0438-2.6155 0.2217-0.7231 0.1492-1.518 0.4243-2.2587 0.3997-0.6335-0.0219-1.3226-0.1985-1.8992 0.1943-0.4476 0.3038-0.6064 0.8909-0.6593 1.4329-0.0895 0.8403-0.5046 1.8804 0.2008 2.5428z" fill="url(#q)"/>
<path d="m69.883 41.302c0.5779-0.3928 1.267-0.2162 1.8992-0.1943 0.7407 0.0246 1.5356-0.2505 2.2587-0.3996 0.8628-0.1779 1.7459-0.3545 2.6154-0.2217 0.1342 0.0213 0.267 0.051 0.3975 0.0889-1.3565 0.4339-2.2017 1.7614-4.7371 1.7532-3.0306-0.0096-2.374 0.234-2.5178 1.4766-0.0649 0.503-0.1874 0.9967-0.3649 1.4713-0.7027-0.6624-0.2903-1.7025-0.2103-2.5401 0.0475-0.5433 0.2116-1.1305 0.6593-1.4343z" fill="url(#p)"/>
<path d="m79.443 55.773c-0.4477 0.0917-1.3769 0.1711-1.5072 0.2066-0.5751 0.1602-1.0852 0.4106-1.7052 0.4845-1.385 0.1588-2.8121 0.037-4.1022-0.5228-0.0113-0.3461 0.0551-0.6903 0.1942-1.0069 0.139-0.3166 0.3472-0.5974 0.6089-0.8215 0.8343-0.7089 2.1121-0.7568 3.1472-0.7897 0.8994-0.0287 1.807-0.0999 2.6195 0.3928 0.328 0.2046 0.5941 0.496 0.7694 0.8425s0.2531 0.7348 0.225 1.1228c-0.0081 0.0315-0.1031 0.0616-0.2496 0.0917z" fill="#1E1147"/>
<path d="m62.337 67.75 0.0068 0.0096c0.5671 0.7007 1.1436 1.4124 1.8734 1.9393 0.7299 0.5269 1.6442 0.8581 2.5273 0.7007 0.7828-0.1369 1.3023-0.5584 1.8558-1.0949-0.0475 1.3946-0.2605 3.2066 1.5655 3.4379 2.8705 0.4502 5.7817 0.6993 8.682 0.572 1.2399-0.0547 2.8488 0 4.0263-0.4393 1.0853-0.4105 0.43-2.228 0.3419-3.0232-0.1776-1.4547-0.2402-2.9214-0.1873-4.3862 0.0502-1.0155 0.1818-2.0241 0.3039-3.0328 0.1357-1.1427 0.2713-2.2992 0.1208-3.4406-0.0964-0.88-0.4124-1.7209-0.9184-2.4442-0.5427-0.7459-1.4068-1.0949-2.2587-1.3932-1.9291-0.6611-4.0073-0.7883-6.0245-0.6036-1.7975 0.1642-3.8595 0.5748-5.4412 1.4945-0.6051 0.34-1.1076 0.8389-1.4543 1.4438-0.5589 1.0183-0.8221 2.1596-1.1314 3.2723-0.0827 0.3038-0.8682 3.2654-0.9251 3.2654-0.2413-0.0906-0.4695-0.2135-0.6783-0.3654-0.6295-0.4325-1.1694-1.0018-1.849-1.3508-0.0642-0.0402-0.1388-0.0602-0.2144-0.0575-0.0545 0.0121-0.1061 0.0349-0.1519 0.0671-0.877 0.5606-1.5247 1.421-1.8246 2.4237-0.0849 0.2451-0.0873 0.5116-0.0068 0.7582 0.0589 0.1256 0.1356 0.2418 0.2279 0.3449l1.5343 1.9023z" fill="url(#o)"/>
<path d="m62.333 63.568c0.6973 0.3517 1.9182 2.4182 2.4418 2.551 0.5236 0.1327 0.6362-2.395 0.6362-2.395-0.0246 0.106-0.061 0.2088-0.1085 0.3066-0.2413-0.0907-0.4694-0.2136-0.6783-0.3655-0.6294-0.4324-1.1693-1.0018-1.849-1.3507-0.0642-0.0403-0.1388-0.0603-0.2143-0.0575-0.0545 0.012-0.1062 0.0348-0.1519 0.067-0.4051 0.2572-0.7646 0.581-1.0636 0.958 0.3427 0.0391 0.6765 0.1358 0.9876 0.2861z" fill="#1E1147" fill-opacity=".2"/>
<path d="m70.444 72.787c-0.3392-1.1469-0.4803-3.1601-0.2605-4.4246 0.3052-1.76 0.4789-5.3662 0.3052-6.9948-0.1736-1.6286-1.1341-4.4424-1.2887-4.1782-0.1547 0.2641 0.7651 5.2785 0.5996 7.0002s-0.7068 4.4807-1.1992 5.1185c-0.0475 1.3945-0.2605 3.2065 1.5655 3.4378l0.2781 0.0411z" fill="#1E1147" fill-opacity=".2"/>
<path d="m73.553 78.156c0.0801 2.1665 0.1086 4.3795 0.0923 6.5569-0.2388 0-0.8397 0.0314-0.8845 0-0.0448-0.0315-0.6498-4.4096-0.9387-6.5569h1.7309z" fill="url(#m)"/>
<path d="m79.716 78.156c0.3283 2.1665 0.6105 4.3795 0.8438 6.5569-0.2374 0-0.837 0.0314-0.8845 0-0.0474-0.0315-1.1558-4.4096-1.6916-6.5569h1.7323z" fill="url(#l)"/>
<path d="m70.665 78.211c-0.08 2.1664-0.1085 4.3794-0.0922 6.5568 0.2387 0 0.8397 0.0315 0.8844 0 0.0448-0.0314 0.6498-4.4095 0.9388-6.5568h-1.731z" fill="url(#k)"/>
<path d="m64.505 78.211c-0.3283 2.1664-0.6105 4.3794-0.8438 6.5568 0.2374 0 0.837 0.0315 0.8845 0 0.0474-0.0314 1.1558-4.4095 1.6902-6.5568h-1.7309z" fill="url(#j)"/>
<path d="m63.576 78.925c3.7021 0.5004 7.5655 0.3748 11.422 0.2495 0.671-0.0218 1.3417-0.0436 2.0113-0.0621 1.0999-0.0319 2.0682-0.0745 2.9579-0.3467 0.8733-0.2672 1.5959-0.7635 1.9615-1.4151 0.2045-0.4085 0.3543-0.8428 0.4454-1.2915l0.0037-0.018 0.0043-0.0178c0.8951-3.7052 1.4706-7.4816 1.7201-11.287 0.0634-0.9742 0.0916-1.7928-0.1234-2.528l-0.0018-0.0062c-0.3893-1.364-1.7225-1.9071-3.5795-2.1471h-1e-4c-2.4389-0.3154-4.8823-0.0178-6.518 1.3882l-10.303 17.482zm0 0c0.2592-0.0843 0.5356-0.1642 0.8319-0.25 0.1599-0.0462 0.3256-0.0942 0.4975-0.1454 0.9789-0.2915 2.1588-0.6952 3.0289-1.6722 0.699-0.7847 1.0351-1.7772 1.2877-2.5405l0.0012-0.0036c0.6007-1.8384 1.1192-3.7023 1.5554-5.5914l3e-4 -0.0012c0.0603-0.2626 0.1181-0.5214 0.1752-0.7767 0.26-1.1629 0.504-2.2543 0.8885-3.3088 0.4627-1.2692 1.1185-2.4027 2.0361-3.1918l-10.303 17.482z" fill="#C9D4D9" stroke="#A6BFCA" stroke-width="2"/>
<path d="m62.766 70.778h-1.0174v13.933h1.0174v-13.933z" fill="url(#i)"/>
<path d="m25.177 70.778h-1.0174v13.933h1.0174v-13.933z" fill="url(#h)"/>
<path d="m37.127 70.778h-1.0174v13.933h1.0174v-13.933z" fill="url(#g)"/>
<path d="m65.407 70.132h-43.266v1.5725h43.266v-1.5725z" fill="url(#f)"/>
<path d="m39.701 70.146h-17.584v1.5725h17.584v-1.5725z" fill="url(#e)"/>
</g>
<defs>
<filter id="bw" x="0" y="0" width="108" height="108" color-interpolation-filters="sRGB" filterUnits="userSpaceOnUse">
<feFlood flood-opacity="0" result="BackgroundImageFix"/>
<feColorMatrix in="SourceAlpha" result="hardAlpha" values="0 0 0 0 0 0 0 0 0 0 0 0 0 0 0 0 0 0 127 0"/>
<feOffset dy="2"/>
<feGaussianBlur stdDeviation="12"/>
<feColorMatrix values="0 0 0 0 0 0 0 0 0 0 0 0 0 0 0 0 0 0 0.04 0"/>
<feBlend in2="BackgroundImageFix" result="effect1_dropShadow_6067_251620"/>
<feBlend in="SourceGraphic" in2="effect1_dropShadow_6067_251620" result="shape"/>
</filter>
<filter id="bv" x="8.1484" y="-3.2522" width="82.465" height="90.285" color-interpolation-filters="sRGB" filterUnits="userSpaceOnUse">
<feFlood flood-opacity="0" result="BackgroundImageFix"/>
<feColorMatrix in="SourceAlpha" result="hardAlpha" values="0 0 0 0 0 0 0 0 0 0 0 0 0 0 0 0 0 0 127 0"/>
<feOffset/>
<feGaussianBlur stdDeviation="15"/>
<feComposite in2="hardAlpha" operator="out"/>
<feColorMatrix values="0 0 0 0 0 0 0 0 0 0 0 0 0 0 0 0 0 0 0.25 0"/>
<feBlend in2="BackgroundImageFix" result="effect1_dropShadow_6067_251620"/>
<feBlend in="SourceGraphic" in2="effect1_dropShadow_6067_251620" result="shape"/>
</filter>
<filter id="bu" x="14.794" y="1.812" width="82.383" height="88.603" color-interpolation-filters="sRGB" filterUnits="userSpaceOnUse">
<feFlood flood-opacity="0" result="BackgroundImageFix"/>
<feColorMatrix in="SourceAlpha" result="hardAlpha" values="0 0 0 0 0 0 0 0 0 0 0 0 0 0 0 0 0 0 127 0"/>
<feOffset/>
<feGaussianBlur stdDeviation="15"/>
<feComposite in2="hardAlpha" operator="out"/>
<feColorMatrix values="0 0 0 0 0 0 0 0 0 0 0 0 0 0 0 0 0 0 0.25 0"/>
<feBlend in2="BackgroundImageFix" result="effect1_dropShadow_6067_251620"/>
<feBlend in="SourceGraphic" in2="effect1_dropShadow_6067_251620" result="shape"/>
</filter>
<filter id="bt" x="29.65" y="53.086" width="12.631" height="13.733" color-interpolation-filters="sRGB" filterUnits="userSpaceOnUse">
<feFlood flood-opacity="0" result="BackgroundImageFix"/>
<feColorMatrix in="SourceAlpha" result="hardAlpha" values="0 0 0 0 0 0 0 0 0 0 0 0 0 0 0 0 0 0 127 0"/>
<feOffset dy="4"/>
<feGaussianBlur stdDeviation="1.5"/>
<feComposite in2="hardAlpha" operator="out"/>
<feColorMatrix values="0 0 0 0 0 0 0 0 0 0 0 0 0 0 0 0 0 0 0.4 0"/>
<feBlend in2="BackgroundImageFix" result="effect1_dropShadow_6067_251620"/>
<feBlend in="SourceGraphic" in2="effect1_dropShadow_6067_251620" result="shape"/>
</filter>
<filter id="bs" x="32.992" y="53.434" width="5.699" height="8.2342" color-interpolation-filters="sRGB" filterUnits="userSpaceOnUse">
<feFlood flood-opacity="0" result="BackgroundImageFix"/>
<feBlend in="SourceGraphic" in2="BackgroundImageFix" result="shape"/>
<feColorMatrix in="SourceAlpha" result="hardAlpha" values="0 0 0 0 0 0 0 0 0 0 0 0 0 0 0 0 0 0 127 0"/>
<feOffset dy="4"/>
<feGaussianBlur stdDeviation="2"/>
<feComposite in2="hardAlpha" k2="-1" k3="1" operator="arithmetic"/>
<feColorMatrix values="0 0 0 0 0 0 0 0 0 0 0 0 0 0 0 0 0 0 0.25 0"/>
<feBlend in2="shape" result="effect1_innerShadow_6067_251620"/>
</filter>
<linearGradient id="bq" x1="1565.9" x2="1601.4" y1="1312.5" y2="1396.2" gradientUnits="userSpaceOnUse">
<stop stop-color="#1E1548" offset=".01"/>
<stop stop-color="#2E99B0" offset=".99"/>
</linearGradient>
<linearGradient id="bf" x1="914.98" x2="958.8" y1="1353.6" y2="1410.9" gradientUnits="userSpaceOnUse">
<stop stop-color="#1E1548" offset=".01"/>
<stop stop-color="#2E99B0" offset=".99"/>
</linearGradient>
<linearGradient id="au" x1="3798.2" x2="4853.1" y1="7399.2" y2="6365.6" gradientUnits="userSpaceOnUse">
<stop stop-color="#1E1548" offset=".01"/>
<stop stop-color="#2E99B0" offset=".99"/>
</linearGradient>
<linearGradient id="aj" x1="2948.3" x2="2989.1" y1="2859.2" y2="2955.1" gradientUnits="userSpaceOnUse">
<stop stop-color="#1E1548" offset=".01"/>
<stop stop-color="#2E99B0" offset=".99"/>
</linearGradient>
<linearGradient id="y" x1="6669.1" x2="5738" y1="4801" y2="4801" gradientUnits="userSpaceOnUse">
<stop stop-color="#1E1548" offset=".01"/>
<stop stop-color="#2E99B0" offset=".99"/>
</linearGradient>
<linearGradient id="n" x1="28.271" x2="28.271" y1="91.12" y2="73.128" gradientUnits="userSpaceOnUse">
<stop stop-color="#F4EEFF" offset=".01"/>
<stop stop-color="#fff" offset=".99"/>
</linearGradient>
<linearGradient id="d" x1="43.56" x2="43.56" y1="35.604" y2="33.838" gradientUnits="userSpaceOnUse">
<stop stop-color="#0B1321" offset=".01"/>
<stop stop-color="#142133" offset=".99"/>
</linearGradient>
<linearGradient id="c" x1="1332.2" x2="1332.2" y1="385.15" y2="423.95" gradientUnits="userSpaceOnUse">
<stop stop-color="#0B1321" offset=".01"/>
<stop stop-color="#142133" offset=".99"/>
</linearGradient>
<linearGradient id="b" x1="1048.7" x2="1048.7" y1="354.18" y2="380.03" gradientUnits="userSpaceOnUse">
<stop stop-color="#F4EEFF" offset=".01"/>
<stop stop-color="#fff" offset=".99"/>
</linearGradient>
<linearGradient id="a" x1="43.622" x2="43.622" y1="34.697" y2="30.94" gradientUnits="userSpaceOnUse">
<stop stop-color="#ED9264" offset=".01"/>
<stop stop-color="#FFC7A7" offset=".99"/>
</linearGradient>
<linearGradient id="bp" x1="862.45" x2="850.16" y1="315.1" y2="345.84" gradientUnits="userSpaceOnUse">
<stop stop-color="#ED9264" offset=".01"/>
<stop stop-color="#FFC7A7" offset=".99"/>
</linearGradient>
<linearGradient id="bo" x1="1157.4" x2="1157.4" y1="384.78" y2="433.55" gradientUnits="userSpaceOnUse">
<stop stop-color="#0B1321" offset=".01"/>
<stop stop-color="#142133" offset=".99"/>
</linearGradient>
<linearGradient id="bn" x1="240.88" x2="240.88" y1="124.29" y2="121.2" gradientUnits="userSpaceOnUse">
<stop stop-color="#F4EEFF" offset=".01"/>
<stop stop-color="#fff" offset=".99"/>
</linearGradient>
<linearGradient id="bm" x1="1662" x2="1662" y1="279.32" y2="260.23" gradientUnits="userSpaceOnUse">
<stop stop-color="#0B1321" offset=".01"/>
<stop stop-color="#142133" offset=".99"/>
</linearGradient>
<linearGradient id="bl" x1="2146.1" x2="2146.1" y1="541.27" y2="516.85" gradientUnits="userSpaceOnUse">
<stop stop-color="#F4EEFF" offset=".01"/>
<stop stop-color="#fff" offset=".99"/>
</linearGradient>
<linearGradient id="bk" x1="1118.1" x2="1118.1" y1="365.33" y2="382.46" gradientUnits="userSpaceOnUse">
<stop stop-color="#F4EEFF" offset=".01"/>
<stop stop-color="#fff" offset=".99"/>
</linearGradient>
<linearGradient id="bj" x1="50.222" x2="50.222" y1="34.629" y2="39.385" gradientUnits="userSpaceOnUse">
<stop stop-color="#FFC7A7" offset=".01"/>
<stop stop-color="#ED9264" offset=".99"/>
</linearGradient>
<linearGradient id="bi" x1="999.75" x2="1007.9" y1="405.17" y2="387.61" gradientUnits="userSpaceOnUse">
<stop stop-color="#FFC7A7" offset=".01"/>
<stop stop-color="#ED9264" offset=".99"/>
</linearGradient>
<linearGradient id="bh" x1="1359.1" x2="1365.2" y1="505.27" y2="475.87" gradientUnits="userSpaceOnUse">
<stop stop-color="#0B1321" offset=".01"/>
<stop stop-color="#142133" offset=".99"/>
</linearGradient>
<linearGradient id="bg" x1="2144.5" x2="2144.5" y1="420.05" y2="380.91" gradientUnits="userSpaceOnUse">
<stop stop-color="#F4EEFF" offset=".01"/>
<stop stop-color="#fff" offset=".99"/>
</linearGradient>
<linearGradient id="be" x1="1127" x2="1125.8" y1="203.67" y2="213.82" gradientUnits="userSpaceOnUse">
<stop stop-color="#0B1321" offset=".01"/>
<stop stop-color="#142133" offset=".99"/>
</linearGradient>
<linearGradient id="bd" x1="59.998" x2="59.734" y1="28.162" y2="42.499" gradientUnits="userSpaceOnUse">
<stop stop-color="#009A5D" offset="0"/>
<stop stop-color="#37EAA3" offset="1"/>
</linearGradient>
<linearGradient id="bc" x1="1915.2" x2="2095.1" y1="298.18" y2="298.18" gradientUnits="userSpaceOnUse">
<stop stop-color="#F4EEFF" offset=".01"/>
<stop stop-color="#fff" offset=".99"/>
</linearGradient>
<linearGradient id="bb" x1="534.59" x2="534.59" y1="3298.7" y2="3413.3" gradientUnits="userSpaceOnUse">
<stop stop-color="#0B1321" offset=".01"/>
<stop stop-color="#142133" offset=".99"/>
</linearGradient>
<linearGradient id="ba" x1="609.21" x2="609.21" y1="3298.7" y2="3413.3" gradientUnits="userSpaceOnUse">
<stop stop-color="#0B1321" offset=".01"/>
<stop stop-color="#142133" offset=".99"/>
</linearGradient>
<linearGradient id="az" x1="552.72" x2="552.72" y1="3293.2" y2="3550.2" gradientUnits="userSpaceOnUse">
<stop stop-color="#0B1321" offset=".01"/>
<stop stop-color="#142133" offset=".99"/>
</linearGradient>
<linearGradient id="ay" x1="897.14" x2="897.14" y1="3293.2" y2="3550.2" gradientUnits="userSpaceOnUse">
<stop stop-color="#0B1321" offset=".01"/>
<stop stop-color="#142133" offset=".99"/>
</linearGradient>
<linearGradient id="ax" x1="7185.4" x2="7776.3" y1="5765.6" y2="5161.5" gradientUnits="userSpaceOnUse">
<stop stop-color="#0B1321" offset=".01"/>
<stop stop-color="#142133" offset=".99"/>
</linearGradient>
<linearGradient id="aw" x1="2455.5" x2="2879.8" y1="6410.7" y2="6262.3" gradientUnits="userSpaceOnUse">
<stop stop-color="#0B1321" offset=".01"/>
<stop stop-color="#142133" offset=".99"/>
</linearGradient>
<linearGradient id="av" x1="5069.8" x2="5912.2" y1="6208.9" y2="5592.9" gradientUnits="userSpaceOnUse">
<stop stop-color="#0B1321" offset=".01"/>
<stop stop-color="#142133" offset=".99"/>
</linearGradient>
<linearGradient id="at" x1="4434.3" x2="5123.7" y1="5662" y2="4779.8" gradientUnits="userSpaceOnUse">
<stop stop-color="#0B1321" offset=".01"/>
<stop stop-color="#142133" offset=".99"/>
</linearGradient>
<linearGradient id="as" x1="6677.3" x2="7388.2" y1="10498" y2="8391.4" gradientUnits="userSpaceOnUse">
<stop stop-color="#0B1321" offset=".01"/>
<stop stop-color="#142133" offset=".99"/>
</linearGradient>
<linearGradient id="ar" x1="2781.1" x2="3115.1" y1="4606.4" y2="4283.6" gradientUnits="userSpaceOnUse">
<stop stop-color="#0B1321" offset=".01"/>
<stop stop-color="#142133" offset=".99"/>
</linearGradient>
<linearGradient id="aq" x1="3211.6" x2="3670.5" y1="3747" y2="2246.6" gradientUnits="userSpaceOnUse">
<stop stop-color="#707070" offset="0"/>
<stop stop-color="#E8E8E8" offset="1"/>
</linearGradient>
<linearGradient id="ap" x1="1159.8" x2="2003.6" y1="6678.1" y2="6002" gradientUnits="userSpaceOnUse">
<stop stop-color="#0B1321" offset=".01"/>
<stop stop-color="#142133" offset=".99"/>
</linearGradient>
<linearGradient id="ao" x1="29.61" x2="37.664" y1="68.669" y2="74.84" gradientUnits="userSpaceOnUse">
<stop stop-color="#FF7154" offset="0"/>
<stop stop-color="#FFAF50" offset="1"/>
</linearGradient>
<linearGradient id="an" x1="2893.5" x2="3082.4" y1="3009.9" y2="2642.6" gradientUnits="userSpaceOnUse">
<stop stop-color="#0B1321" offset=".01"/>
<stop stop-color="#142133" offset=".99"/>
</linearGradient>
<linearGradient id="am" x1="2980.7" x2="3193.3" y1="4287" y2="5012.6" gradientUnits="userSpaceOnUse">
<stop stop-color="#0B1321" offset=".01"/>
<stop stop-color="#142133" offset=".99"/>
</linearGradient>
<linearGradient id="al" x1="1659.7" x2="1841.7" y1="3885.3" y2="4624.3" gradientUnits="userSpaceOnUse">
<stop stop-color="#F4EEFF" offset=".01"/>
<stop stop-color="#fff" offset=".99"/>
</linearGradient>
<linearGradient id="ak" x1="36.991" x2="36.501" y1="57.204" y2="64.744" gradientUnits="userSpaceOnUse">
<stop stop-color="#C11435" offset=".01"/>
<stop stop-color="#FF2E4C" offset=".99"/>
</linearGradient>
<linearGradient id="ai" x1="3460.7" x2="4318.8" y1="5600.3" y2="5307.7" gradientUnits="userSpaceOnUse">
<stop stop-color="#0B1321" offset=".01"/>
<stop stop-color="#142133" offset=".99"/>
</linearGradient>
<linearGradient id="ah" x1="1965.7" x2="2039.2" y1="2035.2" y2="2287.1" gradientUnits="userSpaceOnUse">
<stop stop-color="#F4EEFF" offset=".01"/>
<stop stop-color="#fff" offset=".99"/>
</linearGradient>
<linearGradient id="ag" x1="1747.1" x2="1775" y1="1391.3" y2="1500.5" gradientUnits="userSpaceOnUse">
<stop stop-color="#F4EEFF" offset=".01"/>
<stop stop-color="#fff" offset=".99"/>
</linearGradient>
<linearGradient id="af" x1="32.854" x2="40.926" y1="54.152" y2="55.76" gradientUnits="userSpaceOnUse">
<stop stop-color="#FF7154" offset="0"/>
<stop stop-color="#FFAF50" offset="1"/>
</linearGradient>
<linearGradient id="ae" x1="1936.1" x2="1990.8" y1="930.84" y2="769.62" gradientUnits="userSpaceOnUse">
<stop stop-color="#FFC7A7" offset=".01"/>
<stop stop-color="#ED9264" offset=".99"/>
</linearGradient>
<linearGradient id="ad" x1="4189.2" x2="4238.8" y1="2746.2" y2="2192.1" gradientUnits="userSpaceOnUse">
<stop stop-color="#0B1321" offset=".01"/>
<stop stop-color="#142133" offset=".99"/>
</linearGradient>
<linearGradient id="ac" x1="2019.4" x2="2216" y1="1980.8" y2="1794.5" gradientUnits="userSpaceOnUse">
<stop stop-color="#0B1321" offset=".01"/>
<stop stop-color="#142133" offset=".99"/>
</linearGradient>
<linearGradient id="ab" x1="361.96" x2="364.89" y1="466.05" y2="490.3" gradientUnits="userSpaceOnUse">
<stop stop-color="#FFC7A7" offset=".01"/>
<stop stop-color="#ED9264" offset=".99"/>
</linearGradient>
<linearGradient id="aa" x1="684.89" x2="559.95" y1="2590.6" y2="2998.6" gradientUnits="userSpaceOnUse">
<stop stop-color="#C11435" offset=".01"/>
<stop stop-color="#FF2E4C" offset=".99"/>
</linearGradient>
<linearGradient id="z" x1="48.704" x2="50.181" y1="65.373" y2="65.987" gradientUnits="userSpaceOnUse">
<stop stop-color="#FF7154" offset="0"/>
<stop stop-color="#FFAF50" offset="1"/>
</linearGradient>
<linearGradient id="x" x1="48.434" x2="50.107" y1="67.394" y2="67.885" gradientUnits="userSpaceOnUse">
<stop stop-color="#FF7154" offset="0"/>
<stop stop-color="#FFAF50" offset="1"/>
</linearGradient>
<linearGradient id="w" x1="56.629" x2="61.956" y1="63.286" y2="64.408" gradientUnits="userSpaceOnUse">
<stop stop-color="#FF7154" offset="0"/>
<stop stop-color="#FFAF50" offset="1"/>
</linearGradient>
<linearGradient id="v" x1="10651" x2="10651" y1="6593.1" y2="5732.6" gradientUnits="userSpaceOnUse">
<stop stop-color="#0B1321" offset=".01"/>
<stop stop-color="#142133" offset=".99"/>
</linearGradient>
<linearGradient id="u" x1="-5115.6" x2="-5804.8" y1="5662" y2="4779.8" gradientUnits="userSpaceOnUse">
<stop stop-color="#0B1321" offset=".01"/>
<stop stop-color="#142133" offset=".99"/>
</linearGradient>
<linearGradient id="t" x1="-7664.3" x2="-8255.2" y1="5765.6" y2="5161.5" gradientUnits="userSpaceOnUse">
<stop stop-color="#0B1321" offset=".01"/>
<stop stop-color="#142133" offset=".99"/>
</linearGradient>
<linearGradient id="s" x1="-2562.5" x2="-2986.8" y1="6410.7" y2="6262.3" gradientUnits="userSpaceOnUse">
<stop stop-color="#0B1321" offset=".01"/>
<stop stop-color="#142133" offset=".99"/>
</linearGradient>
<linearGradient id="r" x1="69.007" x2="77.452" y1="52.368" y2="54.331" gradientUnits="userSpaceOnUse">
<stop stop-color="#FF7154" offset="0"/>
<stop stop-color="#FFAF50" offset="1"/>
</linearGradient>
<linearGradient id="q" x1="-8974.6" x2="-9607.9" y1="3114.9" y2="2398.9" gradientUnits="userSpaceOnUse">
<stop stop-color="#0B1321" offset=".01"/>
<stop stop-color="#142133" offset=".99"/>
</linearGradient>
<linearGradient id="p" x1="-5838.5" x2="-5955.2" y1="1405.7" y2="1129.7" gradientUnits="userSpaceOnUse">
<stop stop-color="#0B1321" offset=".01"/>
<stop stop-color="#142133" offset=".99"/>
</linearGradient>
<linearGradient id="o" x1="56.102" x2="56.102" y1="53.168" y2="78.551" gradientUnits="userSpaceOnUse">
<stop stop-color="#D2D5EA" offset="0"/>
<stop stop-color="#636EC2" offset="1"/>
</linearGradient>
<linearGradient id="m" x1="-1038.6" x2="-1038.6" y1="3298.7" y2="3413.3" gradientUnits="userSpaceOnUse">
<stop stop-color="#0B1321" offset=".01"/>
<stop stop-color="#142133" offset=".99"/>
</linearGradient>
<linearGradient id="l" x1="-1378.5" x2="-1378.5" y1="3298.7" y2="3413.3" gradientUnits="userSpaceOnUse">
<stop stop-color="#0B1321" offset=".01"/>
<stop stop-color="#142133" offset=".99"/>
</linearGradient>
<linearGradient id="k" x1="-1054.2" x2="-1054.2" y1="3293.2" y2="3550.2" gradientUnits="userSpaceOnUse">
<stop stop-color="#0B1321" offset=".01"/>
<stop stop-color="#142133" offset=".99"/>
</linearGradient>
<linearGradient id="j" x1="-1635.2" x2="-1635.2" y1="3293.2" y2="3550.2" gradientUnits="userSpaceOnUse">
<stop stop-color="#0B1321" offset=".01"/>
<stop stop-color="#142133" offset=".99"/>
</linearGradient>
<linearGradient id="i" x1="436.9" x2="436.9" y1="4570.9" y2="5918.9" gradientUnits="userSpaceOnUse">
<stop stop-color="#382317" offset="0"/>
<stop stop-color="#9B684C" offset="1"/>
</linearGradient>
<linearGradient id="h" x1="117.39" x2="117.39" y1="4570.9" y2="5730.8" gradientUnits="userSpaceOnUse">
<stop stop-color="#9B684C" offset=".01"/>
<stop stop-color="#142133" offset=".99"/>
</linearGradient>
<linearGradient id="g" x1="321.63" x2="321.63" y1="4539.5" y2="5950.3" gradientUnits="userSpaceOnUse">
<stop stop-color="#9B684C" offset=".01"/>
<stop stop-color="#142133" offset=".99"/>
</linearGradient>
<linearGradient id="f" x1="12164" x2="12164" y1="574.46" y2="733.68" gradientUnits="userSpaceOnUse">
<stop stop-color="#654533" offset=".01"/>
<stop stop-color="#142133" offset=".99"/>
</linearGradient>
<linearGradient id="e" x1="4956.7" x2="4956.7" y1="574.48" y2="733.69" gradientUnits="userSpaceOnUse">
<stop stop-color="#9B684C" offset=".01"/>
<stop stop-color="#142133" offset=".99"/>
</linearGradient>
</defs>
</svg>