<svg xmlns="http://www.w3.org/2000/svg" fill="none" viewBox="15.76 22 68.24 60">
<g opacity="0.1" filter="url(#filter0_d_6067_251909)">
<path fill-rule="evenodd" clip-rule="evenodd" d="M24.0796 44.1898C24.1526 36.4156 24.1891 32.5285 25.725 29.5623C27.0763 26.9529 29.2144 24.8348 31.8364 23.5081C34.8168 22 38.7041 22 46.4786 22H55.2603H61.5223C69.2966 22 73.1837 22 76.1641 23.508C78.786 24.8346 80.9241 26.9526 82.2754 29.5619C83.8114 32.528 83.848 36.4149 83.9213 44.1888L84 52.5307L83.9288 59.8188C83.8529 67.5903 83.8149 71.476 82.2786 74.441C80.9269 77.0494 78.789 79.1666 76.1675 80.4927C73.1876 82 69.3017 82 61.5299 82H53.9348H46.4691C38.6976 82 34.8118 82 31.832 80.4927C29.2106 79.1668 27.0727 77.0497 25.721 74.4414C24.1846 71.4766 24.1464 67.591 24.0702 59.8199L24 52.6707L24.0796 44.1898Z" fill="#4A6D86"/>
</g>
<mask id="mask0_6067_251909" style="mask-type:alpha" maskUnits="userSpaceOnUse" x="24" y="22" width="60" height="60">
<path fill-rule="evenodd" clip-rule="evenodd" d="M24.0796 44.1898C24.1526 36.4156 24.1891 32.5285 25.725 29.5623C27.0763 26.9529 29.2144 24.8348 31.8364 23.5081C34.8168 22 38.7041 22 46.4786 22H55.2603H61.5223C69.2966 22 73.1837 22 76.1641 23.508C78.786 24.8346 80.9241 26.9526 82.2754 29.5619C83.8114 32.528 83.848 36.4149 83.9213 44.1888L84 52.5307L83.9288 59.8188C83.8529 67.5903 83.8149 71.476 82.2786 74.441C80.9269 77.0494 78.789 79.1666 76.1675 80.4927C73.1876 82 69.3017 82 61.5299 82H53.9348H46.4691C38.6976 82 34.8118 82 31.832 80.4927C29.2106 79.1668 27.0727 77.0497 25.721 74.4414C24.1846 71.4766 24.1464 67.591 24.0702 59.8199L24 52.6707L24.0796 44.1898Z" fill="white"/>
</mask>
<g mask="url(#mask0_6067_251909)">
<g opacity="0.4">
<rect x="15.7646" y="31.4951" width="54.1176" height="35.6065" rx="2" fill="#C9D4D9"/>
<rect x="16.7646" y="32.4951" width="52.1176" height="33.6065" rx="1" stroke="#B2B2B2" stroke-opacity="0.29" stroke-width="2"/>
</g>
<rect x="27.5288" y="42.1768" width="22.3529" height="4.74753" fill="url(#paint0_linear_6067_251909)"/>
<rect opacity="0.2" x="27.5999" y="52" width="31.7647" height="3.56065" fill="url(#paint1_linear_6067_251909)"/>
<path fill-rule="evenodd" clip-rule="evenodd" d="M53.2647 82.5693L48.1174 77.4173L53.2647 71.7421V82.5693ZM95.1161 80.5667L83.3552 56.3325C83.3552 56.3325 82.4968 53.7271 78.6766 52.9883L71.7655 51.8081C71.7655 51.8081 71.5076 55.985 67.5594 56.0723C67.5594 56.0723 63.646 55.796 63.4785 51.8081C63.4785 51.8081 57.9133 52.7529 56.1034 53.3359C56.1034 53.3359 54.8272 53.3359 52.6474 56.2081L36.6945 74.4614C36.6945 74.4614 35.15 76.0642 36.0432 78.9431C36.0432 78.9431 36.5721 80.4642 39.294 82.3546L52.6625 92.3045L52.7076 94.5083H82.1524L81.7665 83.3032L89.1067 86.6474C89.1067 86.6474 92.4545 88.2102 94.6869 85.1709C94.6869 85.1709 96.1881 82.912 95.1161 80.5667Z" fill="url(#paint2_linear_6067_251909)"/>
<path fill-rule="evenodd" clip-rule="evenodd" d="M63.7008 51.7524L60.6909 52.1561L60.6853 82.6114H76.6175L76.0764 52.3247L71.7648 51.7929L63.7008 51.7524Z" fill="white"/>
<path opacity="0.2" d="M59.0349 52.6365L58.7062 83.1237" stroke="#1E1147" stroke-width="0.5"/>
<path fill-rule="evenodd" clip-rule="evenodd" d="M42.9526 43.4618C43.1365 43.2246 43.4795 43.2027 43.6711 43.4338C46.6154 46.9831 66.6335 71.1196 67.2308 71.9637C67.8755 72.8749 66.4716 73.8586 66.4716 73.8586L42.955 44.0398C42.8215 43.8706 42.8205 43.6321 42.9526 43.4618Z" fill="#FF0040"/>
<path fill-rule="evenodd" clip-rule="evenodd" d="M70.0776 33.58C70.0776 33.58 66.0936 36.0021 59.6541 35.2321V41.6773C59.6541 42.8766 59.8865 44.0758 60.4286 45.1421C60.9538 46.1751 61.8244 47.2414 63.2559 47.7304V50.3577C63.2559 50.3577 63.0376 53.9525 67.1308 54.6675C67.1308 54.6675 71.4969 54.7473 71.6606 50.3577V44.8126C71.6606 44.8126 74.6621 42.83 74.8258 40.3518C74.8258 40.3518 74.9482 37.847 72.3985 38.6019C72.3985 38.6019 71.9543 38.9095 71.8159 39.7764C71.8159 39.7764 71.3726 40.1116 71.2343 39.2732C71.2343 39.2732 70.7515 38.2886 70.0776 33.58Z" fill="url(#paint3_linear_6067_251909)"/>
<path fill-rule="evenodd" clip-rule="evenodd" d="M72.1252 30.3822C72.1252 30.3822 77.5614 34.4955 77.5068 45.1356C77.5068 45.1356 78.1054 49.2489 74.1911 49.8518C74.1911 49.8518 71.2555 50.4006 68.9713 49.8518C68.9713 49.8518 71.2894 47.6528 71.4287 43.9468C71.4287 43.9468 72.2419 44.7159 73.2555 43.1303C73.2555 43.1303 75.0795 41.7316 74.3163 39.8431C74.3163 39.8431 73.9012 38.9107 72.2137 39.3303C72.2137 39.3303 71.4287 39.7966 71.1972 41.1259C71.1972 41.1259 70.6428 41.1021 70.6193 38.8641L70.5958 37.0686C70.5958 37.0686 68.2165 36.0432 67.569 34.4584C67.569 34.4584 63.6179 37.3725 60.2212 35.5769L60.1054 42.2681C60.1054 42.2681 59.8513 46.0443 63.3403 47.6528V50.3579H60.0226C58.3257 50.3579 56.9478 48.9621 56.9685 47.2511C57.0391 41.6243 57.889 30.2208 63.5708 29.1108C63.5708 29.1108 69.264 28.0872 72.1252 30.3822Z" fill="url(#paint4_linear_6067_251909)"/>
<path d="M73.6219 38.7483L70.3833 39.9019" stroke="white" stroke-width="0.5"/>
<path fill-rule="evenodd" clip-rule="evenodd" d="M65.5537 40.1757C65.5537 41.4575 66.5843 42.4963 67.8539 42.4963C69.1245 42.4963 70.1542 41.4575 70.1542 40.1757C70.1542 38.8939 69.1245 37.8551 67.8539 37.8551C66.5843 37.8551 65.5537 38.8939 65.5537 40.1757Z" stroke="white" stroke-width="0.5"/>
<path fill-rule="evenodd" clip-rule="evenodd" d="M59.6541 40.1757C59.6541 41.4575 60.6837 42.4963 61.9533 42.4963C63.2239 42.4963 64.2545 41.4575 64.2545 40.1757C64.2545 38.8939 63.2239 37.8551 61.9533 37.8551C60.6837 37.8551 59.6541 38.8939 59.6541 40.1757Z" stroke="white" stroke-width="0.5"/>
<path fill-rule="evenodd" clip-rule="evenodd" d="M63.0191 40.4018C63.0191 40.68 62.796 40.905 62.5203 40.905C62.2445 40.905 62.0205 40.68 62.0205 40.4018C62.0205 40.1245 62.2445 39.8986 62.5203 39.8986C62.796 39.8986 63.0191 40.1245 63.0191 40.4018Z" fill="#1E1147"/>
<path fill-rule="evenodd" clip-rule="evenodd" d="M67.5147 40.4018C67.5147 40.68 67.2916 40.905 67.0159 40.905C66.7401 40.905 66.5161 40.68 66.5161 40.4018C66.5161 40.1245 66.7401 39.8986 67.0159 39.8986C67.2916 39.8986 67.5147 40.1245 67.5147 40.4018Z" fill="#1E1147"/>
<path d="M63.4231 44.1238C63.4231 44.1238 63.9878 45.3668 65.809 44.9775" stroke="#9F2E00" stroke-width="0.5"/>
<path fill-rule="evenodd" clip-rule="evenodd" d="M68.3763 47.6425C68.3763 47.6425 66.1231 48.968 63.3447 47.6425V49.8776C63.3447 49.8776 66.9494 50.2564 68.3763 47.6425Z" fill="black" fill-opacity="0.2"/>
<path fill-rule="evenodd" clip-rule="evenodd" d="M68.6211 77.6047L81.9096 87.4521L81.7665 83.3037L68.6211 77.6047Z" fill="#1E1147" fill-opacity="0.2"/>
<path fill-rule="evenodd" clip-rule="evenodd" d="M70.2286 70.9589L67.8766 69.4131L61.9971 68.7655V69.6647L65.311 70.5629L65.2818 71.031L61.9971 70.1157V71.031L65.2074 72.0052L65.1924 72.5303L61.9971 71.4355V72.3803L65.1331 73.325L65.1039 73.8197L61.9971 72.9348V74.0144L69.726 77.3281L70.2286 70.9589Z" fill="url(#paint5_linear_6067_251909)"/>
<path opacity="0.2" d="M78.1221 52.8071L78.706 83.1242" stroke="#1E1147" stroke-width="0.5"/>
<path fill-rule="evenodd" clip-rule="evenodd" d="M70.4065 70.1509L68.6211 77.6045L83.2122 83.9614V74.5604L70.4065 70.1509Z" fill="url(#paint6_linear_6067_251909)"/>
<path fill-rule="evenodd" clip-rule="evenodd" d="M52.3245 81.5909L53.1273 82.3059L52.6623 92.3052L49.5452 89.9703L52.3245 81.5909Z" fill="#1E1147" fill-opacity="0.2"/>
</g>
<defs>
<filter id="filter0_d_6067_251909" x="0" y="0" width="108" height="108" filterUnits="userSpaceOnUse" color-interpolation-filters="sRGB">
<feFlood flood-opacity="0" result="BackgroundImageFix"/>
<feColorMatrix in="SourceAlpha" type="matrix" values="0 0 0 0 0 0 0 0 0 0 0 0 0 0 0 0 0 0 127 0" result="hardAlpha"/>
<feOffset dy="2"/>
<feGaussianBlur stdDeviation="12"/>
<feColorMatrix type="matrix" values="0 0 0 0 0 0 0 0 0 0 0 0 0 0 0 0 0 0 0.04 0"/>
<feBlend mode="normal" in2="BackgroundImageFix" result="effect1_dropShadow_6067_251909"/>
<feBlend mode="normal" in="SourceGraphic" in2="effect1_dropShadow_6067_251909" result="shape"/>
</filter>
<linearGradient id="paint0_linear_6067_251909" x1="33.3527" y1="47.8217" x2="36.6878" y2="38.9121" gradientUnits="userSpaceOnUse">
<stop stop-color="#452F2F"/>
<stop offset="1" stop-color="#26223B"/>
</linearGradient>
<linearGradient id="paint1_linear_6067_251909" x1="35.876" y1="56.2337" x2="37.3245" y2="48.9014" gradientUnits="userSpaceOnUse">
<stop stop-color="#452F2F"/>
<stop offset="1" stop-color="#26223B"/>
</linearGradient>
<linearGradient id="paint2_linear_6067_251909" x1="-5.16013" y1="56.6323" x2="-5.16013" y2="172.391" gradientUnits="userSpaceOnUse">
<stop stop-color="#1ABEF4"/>
<stop offset="1" stop-color="#072E3B"/>
</linearGradient>
<linearGradient id="paint3_linear_6067_251909" x1="58.4272" y1="49.6909" x2="71.4662" y2="52.8023" gradientUnits="userSpaceOnUse">
<stop stop-color="#FF7154"/>
<stop offset="1" stop-color="#FFAF50"/>
</linearGradient>
<linearGradient id="paint4_linear_6067_251909" x1="62.328" y1="54.4174" x2="81.6069" y2="43.9386" gradientUnits="userSpaceOnUse">
<stop stop-color="#452F2F"/>
<stop offset="1" stop-color="#26223B"/>
</linearGradient>
<linearGradient id="paint5_linear_6067_251909" x1="61.3315" y1="75.3074" x2="68.1184" y2="77.4711" gradientUnits="userSpaceOnUse">
<stop stop-color="#FF7154"/>
<stop offset="1" stop-color="#FFAF50"/>
</linearGradient>
<linearGradient id="paint6_linear_6067_251909" x1="58.6249" y1="71.7112" x2="58.6249" y2="109.151" gradientUnits="userSpaceOnUse">
<stop stop-color="#1ABEF4"/>
<stop offset="1" stop-color="#072E3B"/>
</linearGradient>
</defs>
</svg>