<svg width="31" height="31" viewBox="0 0 31 31" fill="none" xmlns="http://www.w3.org/2000/svg">
<path fill-rule="evenodd" clip-rule="evenodd" d="M24.9202 30.2114H6.07382C3.27197 30.2114 1 27.9227 1 25.0997V6.11169C1 3.28864 3.27197 1 6.07382 1H24.9202C27.7225 1 29.994 3.28864 29.994 6.11169V25.0997C29.994 27.9227 27.7225 30.2114 24.9202 30.2114Z" fill="#FEFEFE"/>
<path fill-rule="evenodd" clip-rule="evenodd" d="M24.9202 30.2114H6.07382C3.27197 30.2114 1 27.9227 1 25.0997V6.11169C1 3.28864 3.27197 1 6.07382 1H24.9202C27.7225 1 29.994 3.28864 29.994 6.11169V25.0997C29.994 27.9227 27.7225 30.2114 24.9202 30.2114Z" stroke="#BABBC4" stroke-width="0.5"/>
<path fill-rule="evenodd" clip-rule="evenodd" d="M24.9202 30.2114H6.07382C3.27197 30.2114 1 27.9227 1 25.0997V6.11169C1 3.28864 3.27197 1 6.07382 1H24.9202C27.7225 1 29.994 3.28864 29.994 6.11169V25.0997C29.994 27.9227 27.7225 30.2114 24.9202 30.2114Z" fill="#FEFEFE"/>
<path fill-rule="evenodd" clip-rule="evenodd" d="M24.9202 30.2114H6.07382C3.27197 30.2114 1 27.9227 1 25.0997V6.11169C1 3.28864 3.27197 1 6.07382 1H24.9202C27.7225 1 29.994 3.28864 29.994 6.11169V25.0997C29.994 27.9227 27.7225 30.2114 24.9202 30.2114Z" stroke="#BABBC4" stroke-width="0.5"/>
<path fill-rule="evenodd" clip-rule="evenodd" d="M6.04346 25.8446L15.1247 21.0085V4.75L6.04346 10.8212V25.8446Z" fill="#0AD0F4"/>
<path fill-rule="evenodd" clip-rule="evenodd" d="M23.9504 25.8446L14.8696 21.0085V4.75L23.9504 10.8212V25.8446Z" fill="#161625"/>
</svg>
