<svg width="124" height="27" viewBox="0 0 124 27" fill="none" xmlns="http://www.w3.org/2000/svg">
<path fill-rule="evenodd" clip-rule="evenodd" d="M21.6562 26.5629H4.80673C2.30175 26.5629 0.270508 24.5031 0.270508 21.9624V4.87323C0.270508 2.33248 2.30175 0.272705 4.80673 0.272705H21.6562C24.1616 0.272705 26.1924 2.33248 26.1924 4.87323V21.9624C26.1924 24.5031 24.1616 26.5629 21.6562 26.5629Z" fill="#FEFEFE"/>
<path fill-rule="evenodd" clip-rule="evenodd" d="M21.6562 26.5629H4.80673C2.30175 26.5629 0.270508 24.5031 0.270508 21.9624V4.87323C0.270508 2.33248 2.30175 0.272705 4.80673 0.272705H21.6562C24.1616 0.272705 26.1924 2.33248 26.1924 4.87323V21.9624C26.1924 24.5031 24.1616 26.5629 21.6562 26.5629Z" stroke="#BABBC4" stroke-width="0.5"/>
<path fill-rule="evenodd" clip-rule="evenodd" d="M21.6562 26.5629H4.80673C2.30175 26.5629 0.270508 24.5031 0.270508 21.9624V4.87323C0.270508 2.33248 2.30175 0.272705 4.80673 0.272705H21.6562C24.1616 0.272705 26.1924 2.33248 26.1924 4.87323V21.9624C26.1924 24.5031 24.1616 26.5629 21.6562 26.5629Z" fill="#FEFEFE"/>
<path fill-rule="evenodd" clip-rule="evenodd" d="M21.6562 26.5629H4.80673C2.30175 26.5629 0.270508 24.5031 0.270508 21.9624V4.87323C0.270508 2.33248 2.30175 0.272705 4.80673 0.272705H21.6562C24.1616 0.272705 26.1924 2.33248 26.1924 4.87323V21.9624C26.1924 24.5031 24.1616 26.5629 21.6562 26.5629Z" stroke="#BABBC4" stroke-width="0.5"/>
<path fill-rule="evenodd" clip-rule="evenodd" d="M4.99707 22.8845L13.1161 18.532V3.89941L4.99707 9.36348V22.8845Z" fill="#0AD0F4"/>
<path fill-rule="evenodd" clip-rule="evenodd" d="M21.2343 22.8845L13.1157 18.532V3.89941L21.2343 9.36348V22.8845Z" fill="#161625"/>
<path fill-rule="evenodd" clip-rule="evenodd" d="M33.0386 4.03931H36.3757V8.97802H38.3556V11.8716H36.3757V22.3769H33.0386V11.8716H31.3271V8.97802H33.0386V4.03931Z" fill="#0AD0F4"/>
<path fill-rule="evenodd" clip-rule="evenodd" d="M47.2905 14.7599C47.2401 13.5238 46.4393 12.3134 44.5371 12.3134C42.8088 12.3134 41.8581 13.625 41.7832 14.7599H47.2905ZM50.394 18.8209C49.7685 20.9648 47.8159 22.7551 44.7863 22.7551C41.4074 22.7551 38.4282 20.3086 38.4282 16.1222C38.4282 12.1624 41.3325 9.5896 44.4861 9.5896C48.2919 9.5896 50.5698 12.0361 50.5698 16.0206C50.5698 16.5002 50.5189 17.0045 50.5189 17.0549H41.7076C41.783 18.6945 43.1598 19.8798 44.8117 19.8798C46.3638 19.8798 47.2154 19.0977 47.6151 17.9884L50.394 18.8209Z" fill="#0AD0F4"/>
<path fill-rule="evenodd" clip-rule="evenodd" d="M54.1238 18.2908C54.1992 19.2747 54.9255 20.1826 56.3772 20.1826C57.4782 20.1826 58.0037 19.6024 58.0037 18.9466C58.0037 18.3919 57.6285 17.938 56.6778 17.7362L55.0504 17.3577C52.6717 16.8278 51.5952 15.3904 51.5952 13.65C51.5952 11.4305 53.5483 9.58948 56.2018 9.58948C59.7065 9.58948 60.8825 11.8341 61.0333 13.1709L58.2544 13.8015C58.154 13.0697 57.6285 12.1366 56.2273 12.1366C55.3506 12.1366 54.6493 12.6666 54.6493 13.3727C54.6493 13.9781 55.0999 14.3566 55.7758 14.4824L57.5281 14.8609C59.9568 15.3647 61.1836 16.8534 61.1836 18.6693C61.1836 20.6869 59.6311 22.755 56.4017 22.755C52.6971 22.755 51.4208 20.3336 51.2695 18.9214L54.1238 18.2908Z" fill="#0AD0F4"/>
<path fill-rule="evenodd" clip-rule="evenodd" d="M63.2994 4.03931H66.6365V8.97802H68.6168V11.8716H66.6365V22.3769H63.2994V11.8716H61.5879V8.97802H63.2994V4.03931Z" fill="#0AD0F4"/>
<path fill-rule="evenodd" clip-rule="evenodd" d="M75.9238 12.6411C74.2468 12.6411 72.8442 13.8772 72.8442 16.147C72.8442 18.3921 74.2468 19.6781 75.9238 19.6781C77.6262 19.6781 78.9779 18.4173 78.9779 16.147C78.9779 13.8772 77.6262 12.6411 75.9238 12.6411ZM69.6152 22.3767V4.11646H72.8951V11.3296C73.4452 10.4468 74.7978 9.63956 76.6246 9.63956C80.2297 9.63956 82.3073 12.4398 82.3073 16.1218C82.3073 19.8799 80.0044 22.6796 76.4993 22.6796C74.7978 22.6796 73.4956 21.9232 72.8442 20.8633V22.3767H69.6152Z" fill="#0AD0F4"/>
<path fill-rule="evenodd" clip-rule="evenodd" d="M92.7215 16.172C92.7215 13.8266 91.2199 12.6409 89.5924 12.6409C87.9659 12.6409 86.4634 13.8266 86.4634 16.172C86.4634 18.4926 87.9659 19.7035 89.5924 19.7035C91.2199 19.7035 92.7215 18.5178 92.7215 16.172ZM96.0516 16.172C96.0516 19.9804 93.2723 22.755 89.5923 22.755C85.9122 22.755 83.1343 19.9804 83.1343 16.172C83.1343 12.3384 85.9122 9.58948 89.5923 9.58948C93.2723 9.58948 96.0516 12.3384 96.0516 16.172Z" fill="#0AD0F4"/>
<path fill-rule="evenodd" clip-rule="evenodd" d="M106.465 16.172C106.465 13.8266 104.963 12.6409 103.336 12.6409C101.709 12.6409 100.207 13.8266 100.207 16.172C100.207 18.4926 101.709 19.7035 103.336 19.7035C104.963 19.7035 106.465 18.5178 106.465 16.172ZM109.795 16.172C109.795 19.9804 107.016 22.755 103.335 22.755C99.6554 22.755 96.8774 19.9804 96.8774 16.172C96.8774 12.3384 99.6554 9.58948 103.335 9.58948C107.016 9.58948 109.795 12.3384 109.795 16.172Z" fill="#0AD0F4"/>
<path fill-rule="evenodd" clip-rule="evenodd" d="M118.557 15.1885L123.588 22.3769H119.507L116.253 17.635L114.876 19.0976V22.3769H111.547V4.11621H114.876V14.5831L119.132 9.96743H123.488L118.557 15.1885Z" fill="#0AD0F4"/>
</svg>
